<svg
                        id="wave"
                        style="transform:rotate(0deg); transition: 0.3s"
                        viewBox="0 0 1440 490"
                        version="1.1"
                        xmlns="http://www.w3.org/2000/svg"
                     >
                        <defs>
                           <linearGradient
                              id="sw-gradient-0"
                              x1="0"
                              x2="0"
                              y1="1"
                              y2="0"
                           >
                              <stop
                                 stop-color="rgba(252, 29, 36, 0.8)"
                                 offset="0%"
                              ></stop>
                              <stop
                                 stop-color="rgba(247, 149, 32, 0.8)"
                                 offset="100%"
                              ></stop>
                           </linearGradient>
                        </defs>
                        <path
                           style="transform:translate(0, 0px); opacity:1"
                           fill="url(#sw-gradient-0)"
                           d="M0,147L120,171.5C240,196,480,245,720,245C960,245,1200,196,1440,212.3C1680,229,1920,310,2160,285.8C2400,261,2640,131,2880,114.3C3120,98,3360,196,3600,220.5C3840,245,4080,196,4320,171.5C4560,147,4800,147,5040,138.8C5280,131,5520,114,5760,155.2C6000,196,6240,294,6480,310.3C6720,327,6960,261,7200,269.5C7440,278,7680,359,7920,343C8160,327,8400,212,8640,179.7C8880,147,9120,196,9360,236.8C9600,278,9840,310,10080,302.2C10320,294,10560,245,10800,196C11040,147,11280,98,11520,98C11760,98,12000,147,12240,147C12480,147,12720,98,12960,81.7C13200,65,13440,82,13680,147C13920,212,14160,327,14400,367.5C14640,408,14880,376,15120,310.3C15360,245,15600,147,15840,130.7C16080,114,16320,180,16560,228.7C16800,278,17040,310,17160,326.7L17280,343L17280,490L17160,490C17040,490,16800,490,16560,490C16320,490,16080,490,15840,490C15600,490,15360,490,15120,490C14880,490,14640,490,14400,490C14160,490,13920,490,13680,490C13440,490,13200,490,12960,490C12720,490,12480,490,12240,490C12000,490,11760,490,11520,490C11280,490,11040,490,10800,490C10560,490,10320,490,10080,490C9840,490,9600,490,9360,490C9120,490,8880,490,8640,490C8400,490,8160,490,7920,490C7680,490,7440,490,7200,490C6960,490,6720,490,6480,490C6240,490,6000,490,5760,490C5520,490,5280,490,5040,490C4800,490,4560,490,4320,490C4080,490,3840,490,3600,490C3360,490,3120,490,2880,490C2640,490,2400,490,2160,490C1920,490,1680,490,1440,490C1200,490,960,490,720,490C480,490,240,490,120,490L0,490Z"
                        ></path>
                     </svg>