<svg id="wave" style="transform:rotate(0deg); transition: 0.3s" viewBox="0 0 1440 490" version="1.1" xmlns="http://www.w3.org/2000/svg"><defs><linearGradient id="sw-gradient-0" x1="0" x2="0" y1="1" y2="0"><stop stop-color="rgba(252, 29, 36, 0.8)" offset="0%"></stop><stop stop-color="rgba(247, 149, 32, 0.8)" offset="100%"></stop></linearGradient></defs><path style="transform:translate(0, 0px); opacity:1" fill="url(#sw-gradient-0)" d="M0,0L120,73.5C240,147,480,294,720,351.2C960,408,1200,376,1440,367.5C1680,359,1920,376,2160,359.3C2400,343,2640,294,2880,261.3C3120,229,3360,212,3600,171.5C3840,131,4080,65,4320,73.5C4560,82,4800,163,5040,204.2C5280,245,5520,245,5760,204.2C6000,163,6240,82,6480,49C6720,16,6960,33,7200,40.8C7440,49,7680,49,7920,98C8160,147,8400,245,8640,277.7C8880,310,9120,278,9360,269.5C9600,261,9840,278,10080,294C10320,310,10560,327,10800,294C11040,261,11280,180,11520,122.5C11760,65,12000,33,12240,89.8C12480,147,12720,294,12960,302.2C13200,310,13440,180,13680,106.2C13920,33,14160,16,14400,49C14640,82,14880,163,15120,236.8C15360,310,15600,376,15840,367.5C16080,359,16320,278,16560,220.5C16800,163,17040,131,17160,114.3L17280,98L17280,490L17160,490C17040,490,16800,490,16560,490C16320,490,16080,490,15840,490C15600,490,15360,490,15120,490C14880,490,14640,490,14400,490C14160,490,13920,490,13680,490C13440,490,13200,490,12960,490C12720,490,12480,490,12240,490C12000,490,11760,490,11520,490C11280,490,11040,490,10800,490C10560,490,10320,490,10080,490C9840,490,9600,490,9360,490C9120,490,8880,490,8640,490C8400,490,8160,490,7920,490C7680,490,7440,490,7200,490C6960,490,6720,490,6480,490C6240,490,6000,490,5760,490C5520,490,5280,490,5040,490C4800,490,4560,490,4320,490C4080,490,3840,490,3600,490C3360,490,3120,490,2880,490C2640,490,2400,490,2160,490C1920,490,1680,490,1440,490C1200,490,960,490,720,490C480,490,240,490,120,490L0,490Z"></path></svg>