<svg id="Layer_1" data-name="Layer 1" xmlns="http://www.w3.org/2000/svg" viewBox="0 0 140 140"><defs><style>.cls-1{fill:#37b34a;}.cls-2{fill:#fff;fill-rule:evenodd;}</style></defs><circle class="cls-1" cx="73.62" cy="69.27" r="35.95"/><path class="cls-2" d="M73.62,46.33A22.94,22.94,0,0,0,54.34,81.7l-3.48,7.67a2,2,0,0,0,.3,2.13,2,2,0,0,0,1.52.71,2.33,2.33,0,0,0,.53-.07l9.61-2.64a22.94,22.94,0,1,0,10.8-43.17Zm0,41.87a18.85,18.85,0,0,1-9.53-2.58,2,2,0,0,0-1-.27,1.88,1.88,0,0,0-.53.07l-6.28,1.72,2.19-4.81a2,2,0,0,0-.2-2A18.93,18.93,0,1,1,73.62,88.2Z"/><path class="cls-2" d="M82.44,72.7c-1-.57-2.21-1.21-3.34-.75-.87.35-1.43,1.71-2,2.41a.83.83,0,0,1-1.07.23,15.15,15.15,0,0,1-7.56-6.47.94.94,0,0,1,.12-1.27A5.15,5.15,0,0,0,70,64.63,4.9,4.9,0,0,0,69.36,62c-.46-1-1-2.38-2-2.94a2.69,2.69,0,0,0-2.9.43,5.89,5.89,0,0,0-2,4.66,6.67,6.67,0,0,0,.19,1.48,12.31,12.31,0,0,0,1.41,3.27,24.34,24.34,0,0,0,1.49,2.25,22.84,22.84,0,0,0,6.42,6A19,19,0,0,0,76,79a8.93,8.93,0,0,0,4.67.74,5.68,5.68,0,0,0,4.23-3.15,2.75,2.75,0,0,0,.19-1.6C84.83,73.89,83.33,73.24,82.44,72.7Z"/></svg>