<svg id="Layer_1" data-name="Layer 1" xmlns="http://www.w3.org/2000/svg" viewBox="0 0 170 170"><defs><style>.cls-1{fill:#0177b5;}.cls-2{fill:#fff;}</style></defs><path class="cls-1" d="M108.94,53.72H62.29a4,4,0,0,0-4,4v46.85a4,4,0,0,0,4,4H109a4,4,0,0,0,4-4V57.67A4,4,0,0,0,108.94,53.72Z"/><path class="cls-2" d="M66.37,74.25H74.5v26.13H66.37Zm4.06-13A4.71,4.71,0,1,1,65.72,66a4.71,4.71,0,0,1,4.71-4.71h0m9.15,13h7.79v3.57h.11a8.54,8.54,0,0,1,7.7-4.22c8.22,0,9.74,5.41,9.74,12.45v14.33H96.8V87.67c0-3,0-6.93-4.22-6.93s-4.87,3.3-4.87,6.71v12.92H79.59V74.24Z"/></svg>