<svg xmlns="http://www.w3.org/2000/svg" width="80.839" height="80.839" viewBox="0 0 80.839 80.839">
  <g id="Group_257" data-name="Group 257" transform="translate(-675.911 -943.714)">
    <circle id="Ellipse_15" data-name="Ellipse 15" cx="38.42" cy="38.42" r="38.42" transform="translate(677.911 945.714)" fill="#fff" stroke="#333" stroke-miterlimit="10" stroke-width="4"/>
    <g id="Group_256" data-name="Group 256">
      <g id="Group_230" data-name="Group 230">
        <g id="Group_226" data-name="Group 226">
          <g id="Group_225" data-name="Group 225">
            <g id="Group_224" data-name="Group 224">
              <path id="Path_257" data-name="Path 257" d="M709.444,976.261l.137-3.647a3.407,3.407,0,0,1,3.372-3.241h7.685a3.4,3.4,0,0,1,3.357,3.073l.189,3.815Z" fill="#333"/>
            </g>
          </g>
        </g>
        <g id="Group_229" data-name="Group 229">
          <g id="Group_228" data-name="Group 228">
            <g id="Group_227" data-name="Group 227">
              <rect id="Rectangle_39" data-name="Rectangle 39" width="6.493" height="9.195" rx="3.247" transform="translate(713.729 957.914) rotate(1.992)" fill="#333"/>
            </g>
          </g>
        </g>
      </g>
      <g id="Group_232" data-name="Group 232">
        <g id="Group_231" data-name="Group 231">
          <path id="Path_258" data-name="Path 258" d="M702.128,976.418v3.75h28.692v-3.75Z" fill="#fff"/>
          <path id="Path_259" data-name="Path 259" d="M730.819,980.722H702.128a.554.554,0,0,1-.554-.554v-3.75a.554.554,0,0,1,.554-.554h28.691a.554.554,0,0,1,.554.554v3.75A.554.554,0,0,1,730.819,980.722Zm-28.138-1.108h27.585v-2.643H702.681Z" fill="#333"/>
        </g>
      </g>
      <g id="Group_233" data-name="Group 233">
        <path id="Path_260" data-name="Path 260" d="M730.819,980.168l-4.21,3.281L726,991.835H706.943l-.605-8.386-4.21-3.281Z" fill="#333"/>
      </g>
      <g id="Group_240" data-name="Group 240">
        <g id="Group_236" data-name="Group 236">
          <g id="Group_235" data-name="Group 235">
            <g id="Group_234" data-name="Group 234">
              <path id="Path_261" data-name="Path 261" d="M692.647,1009.9l.135-3.579a3.344,3.344,0,0,1,3.309-3.18h7.542a3.338,3.338,0,0,1,3.294,3.015l.186,3.744Z" fill="#333"/>
            </g>
          </g>
        </g>
        <g id="Group_239" data-name="Group 239">
          <g id="Group_238" data-name="Group 238">
            <g id="Group_237" data-name="Group 237">
              <path id="Path_262" data-name="Path 262" d="M700.427,1000.517h0a3.186,3.186,0,0,1-3.933-2.2l-.721-2.551a3.186,3.186,0,0,1,2.2-3.933h0a3.187,3.187,0,0,1,3.933,2.2l.721,2.551A3.186,3.186,0,0,1,700.427,1000.517Z" fill="#333"/>
            </g>
          </g>
        </g>
      </g>
      <g id="Group_247" data-name="Group 247">
        <g id="Group_243" data-name="Group 243">
          <g id="Group_242" data-name="Group 242">
            <g id="Group_241" data-name="Group 241">
              <path id="Path_263" data-name="Path 263" d="M725.548,1009.562l.135-3.579a3.344,3.344,0,0,1,3.308-3.181h7.542a3.339,3.339,0,0,1,3.295,3.015l.186,3.745Z" fill="#333"/>
            </g>
          </g>
        </g>
        <g id="Group_246" data-name="Group 246">
          <g id="Group_245" data-name="Group 245">
            <g id="Group_244" data-name="Group 244">
              <rect id="Rectangle_40" data-name="Rectangle 40" width="6.372" height="9.023" rx="3.186" transform="translate(731.646 990.959) rotate(16.038)" fill="#333"/>
            </g>
          </g>
        </g>
      </g>
      <g id="Group_248" data-name="Group 248">
        <path id="Path_264" data-name="Path 264" d="M722.505,1010.244l4.76-.237-.219-4.407-.011-.135a6.309,6.309,0,0,0-5.684-5.652,5.562,5.562,0,0,0,1.076-3.107l.148-4.246A5.575,5.575,0,0,0,717.2,986.7l-1.128-.04c-.065,0-.131,0-.2,0a5.547,5.547,0,0,0-5.564,5.375l-.148,4.246a5.541,5.541,0,0,0,1.119,3.539,6.337,6.337,0,0,0-5.649,5.957l-.161,4.26,4.762.18,0-.09H722.5Z" fill="#fff"/>
      </g>
      <g id="Group_255" data-name="Group 255">
        <g id="Group_251" data-name="Group 251">
          <g id="Group_250" data-name="Group 250">
            <g id="Group_249" data-name="Group 249">
              <path id="Path_265" data-name="Path 265" d="M707.858,1010.125l.159-4.212a3.936,3.936,0,0,1,3.894-3.744h8.877a3.931,3.931,0,0,1,3.878,3.549l.219,4.407Z" fill="#333"/>
            </g>
          </g>
        </g>
        <g id="Group_254" data-name="Group 254">
          <g id="Group_253" data-name="Group 253">
            <g id="Group_252" data-name="Group 252">
              <rect id="Rectangle_41" data-name="Rectangle 41" width="7.501" height="10.621" rx="3.75" transform="translate(712.808 988.932) rotate(1.993)" fill="#333"/>
            </g>
          </g>
        </g>
      </g>
    </g>
  </g>
</svg>
