<svg xmlns="http://www.w3.org/2000/svg" width="80.839" height="80.839" viewBox="0 0 80.839 80.839">
  <g id="Group_179" data-name="Group 179" transform="translate(-205.135 -944.62)">
    <circle id="Ellipse_12" data-name="Ellipse 12" cx="38.42" cy="38.42" r="38.42" transform="translate(207.135 946.62)" fill="#fff" stroke="#333" stroke-miterlimit="10" stroke-width="4"/>
    <g id="Group_178" data-name="Group 178">
      <g id="Group_153" data-name="Group 153">
        <g id="Group_149" data-name="Group 149">
          <g id="Group_148" data-name="Group 148">
            <g id="Group_147" data-name="Group 147">
              <path id="Path_228" data-name="Path 228" d="M223.529,1009.17l.112-2.952a2.757,2.757,0,0,1,2.729-2.624h6.222a2.755,2.755,0,0,1,2.718,2.487l.153,3.089Z" fill="#333"/>
            </g>
          </g>
        </g>
        <g id="Group_152" data-name="Group 152">
          <g id="Group_151" data-name="Group 151">
            <g id="Group_150" data-name="Group 150">
              <path id="Path_229" data-name="Path 229" d="M229.948,1001.428h0a2.629,2.629,0,0,1-3.245-1.814l-.6-2.105a2.629,2.629,0,0,1,1.814-3.245h0a2.628,2.628,0,0,1,3.244,1.814l.6,2.1A2.629,2.629,0,0,1,229.948,1001.428Z" fill="#333"/>
            </g>
          </g>
        </g>
      </g>
      <g id="Group_160" data-name="Group 160">
        <g id="Group_156" data-name="Group 156">
          <g id="Group_155" data-name="Group 155">
            <g id="Group_154" data-name="Group 154">
              <path id="Path_230" data-name="Path 230" d="M250.672,1008.89l.112-2.953a2.758,2.758,0,0,1,2.729-2.624h6.222a2.754,2.754,0,0,1,2.718,2.488l.154,3.089Z" fill="#333"/>
            </g>
          </g>
        </g>
        <g id="Group_159" data-name="Group 159">
          <g id="Group_158" data-name="Group 158">
            <g id="Group_157" data-name="Group 157">
              <path id="Path_231" data-name="Path 231" d="M256.173,1001.423h0a2.628,2.628,0,0,1-1.8-3.252l.6-2.1a2.628,2.628,0,0,1,3.252-1.8h0a2.627,2.627,0,0,1,1.8,3.252l-.6,2.1A2.628,2.628,0,0,1,256.173,1001.423Z" fill="#333"/>
            </g>
          </g>
        </g>
      </g>
      <g id="Group_162" data-name="Group 162">
        <g id="Group_161" data-name="Group 161">
          <path id="Path_232" data-name="Path 232" d="M237.189,961.122v24.456l.295.176h31.691V961.122Z" fill="#fff"/>
          <path id="Path_233" data-name="Path 233" d="M269.175,986.308H237.484a.556.556,0,0,1-.284-.078l-.295-.176a.555.555,0,0,1-.269-.476V961.122a.552.552,0,0,1,.553-.553h31.986a.552.552,0,0,1,.553.553v24.632A.553.553,0,0,1,269.175,986.308ZM237.743,985.2h30.878V961.676H237.743Z" fill="#333"/>
        </g>
      </g>
      <g id="Group_163" data-name="Group 163">
        <path id="Path_234" data-name="Path 234" d="M262.047,972.946a6.751,6.751,0,0,0-5.706-7.656l-.975,6.681Z" fill="#333"/>
      </g>
      <g id="Group_165" data-name="Group 165">
        <g id="Group_164" data-name="Group 164">
          <path id="Path_235" data-name="Path 235" d="M261.3,974.675a8.573,8.573,0,1,1-7.245-9.721l-1.284,8.483Z" fill="#fff"/>
          <path id="Path_236" data-name="Path 236" d="M252.826,982.565a9.294,9.294,0,0,1-1.324-.1,9.127,9.127,0,1,1,2.636-18.063.552.552,0,0,1,.467.631l-1.2,7.932,7.978,1.159a.552.552,0,0,1,.468.627A9.141,9.141,0,0,1,252.826,982.565Zm-.011-17.148a8.02,8.02,0,1,0,7.842,9.724l-7.962-1.156a.554.554,0,0,1-.468-.631l1.2-7.914C253.22,965.424,253.017,965.417,252.815,965.417Z" fill="#333"/>
        </g>
      </g>
      <g id="Group_169" data-name="Group 169">
        <g id="Group_166" data-name="Group 166">
          <rect id="Rectangle_26" data-name="Rectangle 26" width="6.792" height="8.973" rx="3.396" transform="matrix(0.981, -0.193, 0.193, 0.981, 231.143, 968.39)" fill="#333"/>
        </g>
        <g id="Group_168" data-name="Group 168">
          <g id="Group_167" data-name="Group 167">
            <path id="Path_237" data-name="Path 237" d="M231.485,991.5l.106-6.505h-.047l-2.939,2.118a2.154,2.154,0,0,1-2.8.154l-2.574-2.006c-1.936-1.15-2.439-3.05-1.076-4.842h0l4.487,3.178,3.449-3.249a4.476,4.476,0,0,1,3.118-1.265h6.748l10.211-5.763.152.365A4.373,4.373,0,0,1,248.2,979.3l-7.4,4.271-.107,7.932Z" fill="#333"/>
          </g>
        </g>
      </g>
      <g id="Group_170" data-name="Group 170">
        <path id="Path_238" data-name="Path 238" d="M248.162,1009.512l3.927-.2-.181-3.636-.009-.11a5.206,5.206,0,0,0-4.689-4.664,4.579,4.579,0,0,0,.887-2.563l.122-3.5a4.6,4.6,0,0,0-4.432-4.752l-.93-.032c-.054,0-.108,0-.161,0a4.576,4.576,0,0,0-4.59,4.435l-.122,3.5a4.571,4.571,0,0,0,.923,2.919,5.228,5.228,0,0,0-4.66,4.915l-.133,3.515,3.928.148,0-.074h10.112Z" fill="#fff"/>
      </g>
      <g id="Group_177" data-name="Group 177">
        <g id="Group_173" data-name="Group 173">
          <g id="Group_172" data-name="Group 172">
            <g id="Group_171" data-name="Group 171">
              <path id="Path_239" data-name="Path 239" d="M236.078,1009.414l.131-3.475a3.247,3.247,0,0,1,3.213-3.089h7.323a3.243,3.243,0,0,1,3.2,2.928l.18,3.636Z" fill="#333"/>
            </g>
          </g>
        </g>
        <g id="Group_176" data-name="Group 176">
          <g id="Group_175" data-name="Group 175">
            <g id="Group_174" data-name="Group 174">
              <rect id="Rectangle_27" data-name="Rectangle 27" width="6.188" height="8.762" rx="3.094" transform="translate(240.162 991.929) rotate(1.993)" fill="#333"/>
            </g>
          </g>
        </g>
      </g>
    </g>
  </g>
</svg>
