<?xml version="1.0" encoding="utf-8"?>
<!-- Generator: Adobe Illustrator 19.2.1, SVG Export Plug-In . SVG Version: 6.00 Build 0)  -->
<svg version="1.1" id="layer" xmlns="http://www.w3.org/2000/svg" xmlns:xlink="http://www.w3.org/1999/xlink" x="0px" y="0px"
	 viewBox="0 0 652 652" style="enable-background:new 0 0 652 652;" xml:space="preserve">
<style type="text/css">
	.st0{fill:#004593;}
	.st1{fill:#E50012;}
	.st2{clip-path:url(#SVGID_2_);fill:url(#SVGID_3_);}
	.st3{clip-path:url(#SVGID_5_);fill:url(#SVGID_6_);}
</style>
<g>
	<path class="st0" d="M69.9,404.6l0.9-0.1l0.1,2.7c-2.5,0.5-4.7,0.8-6.6,0.8c-2.4,0-4.2-0.7-5.2-2c-1.1-1.3-1.6-3.5-1.6-6.4
		c0-5.8,2.4-8.7,7.1-8.7c4.6,0,6.9,2.5,6.9,7.5l-0.2,2.6H61c0,1.4,0.3,2.3,0.9,3c0.6,0.6,1.6,1,3.2,1
		C66.7,404.8,68.3,404.8,69.9,404.6 M67.9,398.1c0-1.6-0.3-2.7-0.8-3.4c-0.5-0.6-1.4-1-2.6-1c-1.2,0-2.1,0.3-2.7,1
		c-0.6,0.7-0.8,1.8-0.9,3.3H67.9z"/>
	<path class="st0" d="M79.4,407.6h-3.6v-16.4h3.5v1c1.6-0.9,3.1-1.4,4.5-1.4c2.2,0,3.7,0.6,4.5,1.9c0.8,1.2,1.2,3.3,1.2,6.1v8.8
		h-3.5v-8.7c0-1.8-0.2-3-0.6-3.8c-0.4-0.7-1.2-1.1-2.3-1.1c-1.1,0-2.2,0.2-3.2,0.7l-0.5,0.2V407.6z"/>
	<path class="st0" d="M106.4,404.6l0.9-0.1l0.1,2.7c-2.5,0.5-4.7,0.8-6.6,0.8c-2.4,0-4.2-0.7-5.2-2c-1.1-1.3-1.6-3.5-1.6-6.4
		c0-5.8,2.4-8.7,7.1-8.7c4.6,0,6.9,2.5,6.9,7.5l-0.2,2.6H97.6c0,1.4,0.3,2.3,0.9,3c0.6,0.6,1.6,1,3.2,1
		C103.2,404.8,104.8,404.8,106.4,404.6 M104.4,398.1c0-1.6-0.3-2.7-0.8-3.4c-0.5-0.6-1.4-1-2.6-1c-1.2,0-2.1,0.3-2.7,1
		c-0.6,0.7-0.8,1.8-0.9,3.3H104.4z"/>
	<path class="st0" d="M112.4,407.6v-16.4h3.5v2c1.9-1.2,3.7-2,5.6-2.3v3.6c-1.9,0.4-3.5,0.9-4.8,1.4l-0.7,0.3v11.4H112.4z"/>
	<path class="st0" d="M139.4,409.8c0,3.6-2.6,5.4-7.8,5.4c-2.5,0-4.3-0.3-5.5-1c-1.2-0.7-1.8-1.9-1.8-3.7c0-0.8,0.2-1.5,0.6-2.1
		c0.4-0.6,1-1.2,1.9-1.9c-0.7-0.5-1.1-1.3-1.1-2.4c0-0.4,0.3-1.1,0.9-2.1l0.3-0.5c-1.6-0.9-2.4-2.6-2.4-4.9c0-2,0.6-3.4,1.8-4.3
		c1.2-0.9,2.8-1.4,4.8-1.4c1,0,1.9,0.1,2.9,0.3l0.5,0.1l5.1-0.1v2.9l-2.7-0.2c0.6,0.8,0.9,1.7,0.9,2.7c0,2.1-0.5,3.6-1.6,4.4
		c-1.1,0.8-2.8,1.2-5.1,1.2c-0.6,0-1,0-1.4-0.1c-0.3,0.7-0.5,1.3-0.5,1.7c0,0.4,0.2,0.7,0.6,0.8c0.4,0.2,1.4,0.2,2.9,0.3
		c2.6,0,4.4,0.4,5.3,1C138.9,406.7,139.4,407.9,139.4,409.8 M127.8,410.1c0,0.8,0.3,1.3,0.9,1.6c0.6,0.3,1.7,0.5,3.1,0.5
		c2.6,0,4-0.8,4-2.3c0-0.9-0.2-1.4-0.7-1.6c-0.5-0.2-1.4-0.4-2.8-0.4l-3.2-0.2c-0.5,0.4-0.8,0.8-1,1.1
		C127.9,409.3,127.8,409.7,127.8,410.1 M128.8,398.8c0.5,0.5,1.3,0.7,2.3,0.7c1.1,0,1.8-0.2,2.3-0.7c0.5-0.5,0.7-1.2,0.7-2.2
		c0-1-0.2-1.7-0.7-2.2c-0.5-0.5-1.3-0.7-2.3-0.7c-2,0-3,1-3,2.9C128.1,397.6,128.3,398.3,128.8,398.8"/>
	<polygon class="st0" points="141.8,391.2 145.3,391.2 148.8,404.5 149.6,404.5 153.1,391.2 156.7,391.2 150.4,414.6 146.9,414.6 
		148.9,407.6 146.1,407.6 	"/>
	<rect x="169.4" y="384.4" class="st1" width="3.5" height="30.3"/>
	<path class="st0" d="M193.5,390.8c1.2,0,2.5,0.2,4.1,0.5l0.8,0.2l-0.1,2.8c-1.7-0.2-3-0.3-3.8-0.3c-1.7,0-2.8,0.4-3.3,1.1
		c-0.6,0.7-0.9,2.1-0.9,4.2c0,2.1,0.3,3.5,0.8,4.3c0.5,0.8,1.7,1.2,3.4,1.2l3.8-0.3l0.1,2.8c-2.2,0.4-3.9,0.6-5,0.6
		c-2.5,0-4.2-0.7-5.3-2c-1-1.3-1.5-3.5-1.5-6.6c0-3.1,0.5-5.2,1.6-6.5C189.3,391.5,191,390.8,193.5,390.8"/>
	<path class="st0" d="M206.4,407.6h-3.6v-23.2h3.6v7.7c1.6-0.8,3.1-1.2,4.5-1.2c2.2,0,3.7,0.6,4.5,1.9c0.8,1.2,1.2,3.3,1.2,6.1v8.8
		H213v-8.7c0-1.8-0.2-3-0.6-3.8c-0.4-0.7-1.2-1.1-2.4-1.1c-1,0-2.1,0.2-3.1,0.5l-0.5,0.2V407.6z"/>
	<path class="st0" d="M233.4,404.6l0.9-0.1l0.1,2.7c-2.5,0.5-4.7,0.8-6.6,0.8c-2.4,0-4.2-0.7-5.2-2c-1.1-1.3-1.6-3.5-1.6-6.4
		c0-5.8,2.4-8.7,7.1-8.7c4.6,0,6.9,2.5,6.9,7.5l-0.2,2.6h-10.2c0,1.4,0.3,2.3,0.9,3c0.6,0.6,1.6,1,3.2,1
		C230.1,404.8,231.7,404.8,233.4,404.6 M231.4,398.1c0-1.6-0.3-2.7-0.8-3.4c-0.5-0.6-1.4-1-2.6-1c-1.2,0-2.1,0.3-2.7,1
		c-0.6,0.7-0.8,1.8-0.9,3.3H231.4z"/>
	<path class="st0" d="M242.9,407.6h-3.6v-16.4h3.5v1c1.5-0.9,3-1.4,4.3-1.4c1.9,0,3.3,0.5,4.2,1.6c2-1.1,4-1.6,5.9-1.6
		c2,0,3.4,0.6,4.2,1.8c0.8,1.2,1.2,3.3,1.2,6.1v8.8h-3.5v-8.7c0-1.8-0.2-3-0.5-3.8c-0.4-0.7-1.1-1.1-2.2-1.1c-1,0-2,0.2-3.2,0.7
		l-0.6,0.2c0.2,0.4,0.3,1.8,0.3,4.2v8.5h-3.5v-8.4c0-1.9-0.2-3.3-0.5-4s-1.1-1.1-2.3-1.1c-1.1,0-2.1,0.2-3,0.7l-0.5,0.2V407.6z"/>
	<path class="st0" d="M267.8,384.6h3.6v3.8h-3.6V384.6z M267.8,391.2h3.6v16.4h-3.6V391.2z"/>
	<path class="st0" d="M282.8,390.8c1.2,0,2.5,0.2,4.1,0.5l0.8,0.2l-0.1,2.8c-1.7-0.2-3-0.3-3.8-0.3c-1.7,0-2.8,0.4-3.3,1.1
		c-0.6,0.7-0.9,2.1-0.9,4.2c0,2.1,0.3,3.5,0.8,4.3c0.5,0.8,1.7,1.2,3.4,1.2l3.8-0.3l0.1,2.8c-2.2,0.4-3.9,0.6-5,0.6
		c-2.5,0-4.2-0.7-5.3-2c-1-1.3-1.5-3.5-1.5-6.6c0-3.1,0.5-5.2,1.6-6.5C278.6,391.5,280.4,390.8,282.8,390.8"/>
	<path class="st0" d="M304.3,396.2v7.5c0,0.5,0.1,0.8,0.4,1.1c0.2,0.2,0.6,0.4,1.1,0.4l-0.1,2.7c-1.9,0-3.3-0.4-4.4-1.2
		c-1.7,0.8-3.5,1.2-5.3,1.2c-3.3,0-4.9-1.7-4.9-5.2c0-1.7,0.4-2.9,1.3-3.6c0.9-0.7,2.2-1.2,4.1-1.3l4.2-0.4v-1.2
		c0-0.9-0.2-1.5-0.6-1.8c-0.4-0.3-0.9-0.5-1.7-0.5c-1.4,0-3.1,0.1-5.2,0.3l-1,0.1l-0.1-2.5c2.4-0.6,4.6-0.9,6.6-0.9
		c2,0,3.4,0.4,4.3,1.3C303.8,393,304.3,394.4,304.3,396.2 M296.9,400.3c-1.5,0.1-2.3,1-2.3,2.5c0,1.5,0.7,2.3,2,2.3
		c1.1,0,2.2-0.2,3.5-0.5l0.6-0.2v-4.4L296.9,400.3z"/>
	<rect x="309.9" y="384.4" class="st0" width="3.6" height="23.2"/>
	<path class="st0" d="M330.4,394.6c-2.6-0.3-4.4-0.5-5.6-0.5c-1.2,0-2,0.1-2.4,0.4c-0.4,0.3-0.7,0.7-0.7,1.3c0,0.6,0.2,1,0.7,1.2
		c0.5,0.2,1.6,0.5,3.5,0.8c1.8,0.3,3.1,0.8,3.9,1.5c0.8,0.7,1.1,1.9,1.1,3.6c0,1.7-0.5,3-1.7,3.8c-1.1,0.8-2.7,1.2-4.8,1.2
		c-1.3,0-3-0.2-5.1-0.6l-1-0.2l0.1-3c2.6,0.3,4.5,0.5,5.7,0.5c1.2,0,2-0.1,2.5-0.4c0.5-0.3,0.7-0.8,0.7-1.4s-0.2-1.1-0.7-1.4
		c-0.5-0.3-1.6-0.5-3.4-0.8c-1.8-0.3-3.1-0.8-3.9-1.4c-0.8-0.6-1.2-1.8-1.2-3.5c0-1.7,0.6-2.9,1.7-3.8c1.1-0.8,2.6-1.2,4.4-1.2
		c1.4,0,3.1,0.2,5.1,0.5l1,0.2L330.4,394.6z"/>
	<rect x="345.7" y="384.4" class="st1" width="3.5" height="30.3"/>
	<path class="st0" d="M364.9,407.6v-16.4h3.5v2c1.9-1.2,3.7-2,5.6-2.3v3.6c-1.9,0.4-3.5,0.9-4.8,1.4l-0.7,0.3v11.4H364.9z"/>
	<path class="st0" d="M389.3,404.6l0.9-0.1l0.1,2.7c-2.5,0.5-4.7,0.8-6.6,0.8c-2.4,0-4.2-0.7-5.2-2c-1.1-1.3-1.6-3.5-1.6-6.4
		c0-5.8,2.4-8.7,7.1-8.7c4.6,0,6.9,2.5,6.9,7.5l-0.2,2.6h-10.2c0,1.4,0.3,2.3,0.9,3c0.6,0.6,1.6,1,3.2,1
		C386.1,404.8,387.7,404.8,389.3,404.6 M387.3,398.1c0-1.6-0.3-2.7-0.8-3.4c-0.5-0.6-1.4-1-2.6-1c-1.2,0-2.1,0.3-2.7,1
		c-0.6,0.7-0.8,1.8-0.9,3.3H387.3z"/>
	<path class="st0" d="M406.6,394.6c-2.6-0.3-4.4-0.5-5.6-0.5c-1.2,0-2,0.1-2.4,0.4c-0.4,0.3-0.7,0.7-0.7,1.3c0,0.6,0.2,1,0.7,1.2
		c0.5,0.2,1.6,0.5,3.5,0.8c1.8,0.3,3.1,0.8,3.9,1.5c0.8,0.7,1.1,1.9,1.1,3.6c0,1.7-0.5,3-1.7,3.8c-1.1,0.8-2.7,1.2-4.8,1.2
		c-1.3,0-3-0.2-5.1-0.6l-1-0.2l0.1-3c2.6,0.3,4.5,0.5,5.7,0.5c1.2,0,2-0.1,2.5-0.4c0.5-0.3,0.7-0.8,0.7-1.4s-0.2-1.1-0.7-1.4
		c-0.5-0.3-1.6-0.5-3.4-0.8c-1.8-0.3-3.1-0.8-3.9-1.4c-0.8-0.6-1.2-1.8-1.2-3.5c0-1.7,0.6-2.9,1.7-3.8c1.1-0.8,2.6-1.2,4.4-1.2
		c1.4,0,3.1,0.2,5.1,0.5l1,0.2L406.6,394.6z"/>
	<path class="st0" d="M412.5,393c1.1-1.4,3-2.1,5.6-2.1c2.6,0,4.5,0.7,5.6,2.1c1.1,1.4,1.7,3.6,1.7,6.4c0,2.8-0.5,5-1.6,6.4
		c-1.1,1.4-3,2.2-5.7,2.2c-2.7,0-4.6-0.7-5.7-2.2c-1.1-1.4-1.6-3.6-1.6-6.4C410.8,396.5,411.4,394.4,412.5,393 M415.2,403.6
		c0.5,0.9,1.5,1.3,3,1.3c1.5,0,2.4-0.4,2.9-1.3c0.5-0.9,0.8-2.3,0.8-4.3c0-2-0.3-3.4-0.8-4.2c-0.5-0.8-1.5-1.2-2.9-1.2
		c-1.4,0-2.4,0.4-2.9,1.2c-0.5,0.8-0.8,2.2-0.8,4.2C414.4,401.3,414.7,402.7,415.2,403.6"/>
	<path class="st0" d="M439.9,391.2h3.5v16.4h-3.5v-1c-1.6,0.9-3.1,1.4-4.4,1.4c-2.2,0-3.8-0.6-4.5-1.8c-0.8-1.2-1.1-3.3-1.1-6.4
		v-8.6h3.6v8.6c0,2,0.2,3.3,0.5,4c0.3,0.7,1.1,1,2.3,1c1.2,0,2.3-0.2,3.2-0.7l0.5-0.2V391.2z"/>
	<path class="st0" d="M448.8,407.6v-16.4h3.5v2c1.9-1.2,3.7-2,5.6-2.3v3.6c-1.9,0.4-3.5,0.9-4.8,1.4l-0.7,0.3v11.4H448.8z"/>
	<path class="st0" d="M467.6,390.8c1.2,0,2.5,0.2,4.1,0.5l0.8,0.2l-0.1,2.8c-1.7-0.2-3-0.3-3.8-0.3c-1.7,0-2.8,0.4-3.3,1.1
		c-0.6,0.7-0.9,2.1-0.9,4.2c0,2.1,0.3,3.5,0.8,4.3c0.5,0.8,1.7,1.2,3.4,1.2l3.8-0.3l0.1,2.8c-2.2,0.4-3.9,0.6-5,0.6
		c-2.5,0-4.2-0.7-5.3-2c-1-1.3-1.5-3.5-1.5-6.6c0-3.1,0.5-5.2,1.6-6.5C463.4,391.5,465.1,390.8,467.6,390.8"/>
	<path class="st0" d="M488.4,404.6l0.9-0.1l0.1,2.7c-2.5,0.5-4.7,0.8-6.6,0.8c-2.4,0-4.2-0.7-5.2-2c-1.1-1.3-1.6-3.5-1.6-6.4
		c0-5.8,2.4-8.7,7.1-8.7c4.6,0,6.9,2.5,6.9,7.5l-0.2,2.6h-10.2c0,1.4,0.3,2.3,0.9,3c0.6,0.6,1.6,1,3.2,1
		C485.2,404.8,486.8,404.8,488.4,404.6 M486.4,398.1c0-1.6-0.3-2.7-0.8-3.4c-0.5-0.6-1.4-1-2.6-1c-1.2,0-2.1,0.3-2.7,1
		c-0.6,0.7-0.8,1.8-0.9,3.3H486.4z"/>
	<path class="st0" d="M505.8,394.6c-2.6-0.3-4.4-0.5-5.6-0.5c-1.2,0-2,0.1-2.4,0.4c-0.4,0.3-0.7,0.7-0.7,1.3c0,0.6,0.2,1,0.7,1.2
		c0.5,0.2,1.7,0.5,3.5,0.8c1.8,0.3,3.1,0.8,3.9,1.5c0.8,0.7,1.1,1.9,1.1,3.6c0,1.7-0.6,3-1.7,3.8c-1.1,0.8-2.7,1.2-4.8,1.2
		c-1.3,0-3-0.2-5.1-0.6l-1-0.2l0.1-3c2.6,0.3,4.5,0.5,5.7,0.5c1.2,0,2-0.1,2.5-0.4c0.5-0.3,0.7-0.8,0.7-1.4s-0.2-1.1-0.7-1.4
		c-0.5-0.3-1.6-0.5-3.4-0.8c-1.8-0.3-3.1-0.8-3.9-1.4c-0.8-0.6-1.2-1.8-1.2-3.5c0-1.7,0.6-2.9,1.7-3.8c1.1-0.8,2.6-1.2,4.4-1.2
		c1.4,0,3.1,0.2,5.1,0.5l1,0.2L505.8,394.6z"/>
	<path class="st0" d="M335.2,281.7v0.5c6.3-7.7,18.3-14.4,29.7-14.4v29.3c-1.8-0.6-4.3-1-7.5-1c-7.9,0-18.3,3.3-22.2,8.9v60.2h-30.3
		v-95h18.3h0.9c6.1,0,11.1,5,11.1,11.1V281.7z"/>
	<path class="st0" d="M386.9,365.2c-6.2,0-11.1-5-11.1-11.1v-2.2V234H406v131.2h-15.1H386.9z"/>
	<path class="st0" d="M467.8,267.8c28.1,0,48.6,20.7,48.6,52.9v6.5h-67.7c1.8,8.8,10,16.9,24.2,16.9c8.5,0,17.9-3.3,23.2-8.1
		l12.8,18.9c-9.4,8.5-25.2,12.6-39.7,12.6c-29.3,0-51.9-19.1-51.9-50C417.2,290,438.1,267.8,467.8,267.8 M448.3,307.5h39.1
		c-0.8-6.7-5.7-16.3-19.7-16.3C454.6,291.2,449.5,300.7,448.3,307.5"/>
	<path class="st0" d="M112.6,282.9l-19.9,82.3H74.5h-7.7c-5.1,0-9.3-3.4-10.7-8L20.8,233.9h36.4l19.9,87.6l22.4-87.6h26.1l22.4,87.5
		l17.9-79v0c1.2-4.9,5.6-8.5,10.8-8.5h7.5h20l-37.6,131.2h-34.2L112.6,282.9L112.6,282.9z"/>
	<path class="st0" d="M604.7,270.2h-8.1c-4.8,0-8.9,3.1-10.5,7.4l0,0.1l-19,52.8l-21.4-60.2h-31.9l37.8,96.4c0,0-1.5,7.1-4.3,10.9
		c-2.7,3.6-6.6,7.3-13.5,7.4h0h-5.3v26.5h6.5c18.1-0.4,32.5-5.1,40.2-25.2l45.6-116H604.7z"/>
</g>
<g>
	<defs>
		<path id="SVGID_1_" d="M264.1,317.7c0,11.2-9.1,20.2-20.2,20.2h-45.6c7.8,17.5,25.2,29.6,45.6,29.6c27.5,0,49.9-22.3,49.9-49.9
			c0-20.3-12.2-37.8-29.6-45.6V317.7z"/>
	</defs>
	<clipPath id="SVGID_2_">
		<use xlink:href="#SVGID_1_"  style="overflow:visible;"/>
	</clipPath>
	
		<linearGradient id="SVGID_3_" gradientUnits="userSpaceOnUse" x1="21.372" y1="722.9868" x2="23.8337" y2="722.9868" gradientTransform="matrix(-18.7413 -22.335 -22.335 18.7413 16824.5723 -12716.6582)">
		<stop  offset="0" style="stop-color:#004593"/>
		<stop  offset="0.1" style="stop-color:#004593"/>
		<stop  offset="1" style="stop-color:#57C2F0"/>
	</linearGradient>
	<polygon class="st2" points="237.7,414.5 151.3,311.5 254.3,225.1 340.7,328.1 	"/>
</g>
<g>
	<defs>
		<path id="SVGID_4_" d="M194,317.7c0,7.2,1.5,14,4.3,20.2h45.6c-11.2,0-20.2-9.1-20.2-20.2c0-11.2,9.1-20.2,20.2-20.2
			c11.2,0,20.2,9.1,20.2,20.2v-45.6c-6.2-2.7-13-4.3-20.2-4.3C216.3,267.8,194,290.1,194,317.7"/>
	</defs>
	<clipPath id="SVGID_5_">
		<use xlink:href="#SVGID_4_"  style="overflow:visible;"/>
	</clipPath>
	
		<linearGradient id="SVGID_6_" gradientUnits="userSpaceOnUse" x1="21.7163" y1="723.5609" x2="24.178" y2="723.5609" gradientTransform="matrix(-11.7089 -25.1097 -25.1097 11.7089 18667.7617 -7589.457)">
		<stop  offset="0" style="stop-color:#E50012"/>
		<stop  offset="0.2" style="stop-color:#E50012"/>
		<stop  offset="0.9" style="stop-color:#E9560A"/>
		<stop  offset="1" style="stop-color:#E9560A"/>
	</linearGradient>
	<polygon class="st3" points="206.5,364.7 167.1,280.3 251.6,241 290.9,325.4 	"/>
</g>
</svg>
