<svg id="Layer_1" data-name="Layer 1" xmlns="http://www.w3.org/2000/svg" viewBox="0 0 1068 720"><defs><style>.cls-1{fill:#005bac;fill-rule:evenodd;}</style></defs><path class="cls-1" d="M766.55,285.93l-27.23,49.2c-10.27-8.31-22.81-14.42-38.82-14.42-37.89,0-51.84,28.11-51.84,47.91,0,14.71,8.23,36.39,41.94,36.39,17.14,0,35.5-7.92,43.74-14.26l-27.06,55.43c-12.61,4.4-20.6,5.78-31.47,6.1-60.34,1.8-83.27-35.1-83.25-72.8,0-49.85,43.12-110.46,116.9-110.46a26.69,26.69,0,0,1,13.32,3.28l5.26-4.58,38.51,18.21ZM286,438.74l1.76,0c1.42,0,2.34-.6,2.4-2.69s-.77-2.32-2.62-2.34h-1.39l-.15,5Zm-3.56,9.74.42-17.23,6.63.06c3.13,0,4,2.56,4,5a5.17,5.17,0,0,1-1.71,4.09,5.66,5.66,0,0,1-3.63,1l-2.17-.05-.17,7.22-3.39-.1Zm-7.54-17.87,3.44.4-1.48,12c-.72,3.82-2.2,5.49-6.39,5s-5.29-2.49-5-6.33l1.5-12,3.46.4-1.48,11.75c-.16,1.28-.46,3.18,1.81,3.39,2,.16,2.48-1.17,2.7-2.83l1.47-11.75Zm-21.85,4.19,2.35.64c1.42.2,2.21-.54,2.49-2.25s-.07-2.19-1.34-2.5l-2.52-.51-1,4.62Zm-.59,2.66-1.54,7.32-3.48-.75,3.71-17.12,5.93,1.35c3.47.75,4.52,2.29,4,5.47-.28,1.83-1.18,3.79-3.39,3.63v0c1.85.65,2,1.58,1.68,3.21-.13.69-1.11,4.86-.44,5.55l0,.51-3.6-.95a18.8,18.8,0,0,1,.56-4.39c.21-1,.52-2.46-.5-3a6.29,6.29,0,0,0-2-.63l-.94-.18Zm-19.26-7.57c1.3-4.21,2.48-7.3,7.49-5.93,2.69.75,4.35,1.93,4.27,5a11.31,11.31,0,0,1-.38,2.09l-3.13-.86c.41-1.72.67-3.09-1.45-3.74-2.45-.67-3.05,2.3-3.38,3.59l-1.27,4.67c-.41,1.38-.89,3.68,1.27,4.27,1.78.49,2.85-1.26,3.5-3.83l-2.18-.57.76-2.7,5.13,1.65-2.44,9-2.36-.63.53-1.91h-.07a3.27,3.27,0,0,1-3.57,1.5c-5.14-1.39-4.6-4.74-3.37-9.22l.65-2.42ZM339.82,435l2.65-.78L339,427l.87,8Zm-2.55,8.34-1.08-17.83,4.19-1.28,8.8,15.51-3.31,1-2.08-3.95-3.66,1.11.47,4.48-3.33,1Zm-5-5.35c0,.32.09.68.1,1,.47,3.14-.1,5.74-3.66,6.45-5.21,1-6.21-2.23-7.12-6.78l-.5-2.45c-.72-4.35-1-7.64,4.07-8.66,2.87-.52,4.76.63,5.55,3.49a8.22,8.22,0,0,1,.34,1.27l-3.12.65c-.37-1.08-.84-3-2.24-2.84-2.54.3-1.7,3.44-1.44,4.75l.94,4.73c.28,1.42.84,3.69,3,3.25,1.78-.35,1-3.11.84-4.23l3.22-.64Zm-22.36-.93c.76-.12,1.78-.21,2.21-.93a2.5,2.5,0,0,0,.32-1.93c-.23-1.26-.65-2-2.25-1.72l-1.49.23.59,4.42.62-.07Zm1.2,8a5,5,0,0,0,1.9-.47c.81-.53.75-1.68.63-2.53-.29-1.87-.78-2.59-2.76-2.29l-1.24.19.79,5.19.68-.09Zm-3.67,3.09-2.36-17.24,5.71-.85c1.38-.2,3.07.05,3.74.91a4.81,4.81,0,0,1,1.12,2.85,3.69,3.69,0,0,1-1.87,4v.06c1.85,0,3,1.33,3.3,3.57a11,11,0,0,1,.05,2.59c-.38,2.27-1.74,3-4,3.31l-5.66.78Zm-5.21-34.91a31,31,0,0,1,13.9-25.69c7.05-4.58,16.5-7.58,31.71-11.45,4.72-1.2,9.64-3.89,11.13-7.31,4.07,4.06,4.8,13.23,4.08,18.58-.85,6.19-8,16.39-18.88,16.79-6.65.27-15.08-1.43-19.08-2.29-6.91-1.49-17.93,2.86-19.68,11.35l-3.18,0Zm-6.64,0,3.52,0c.18-12.56,6.43-23.37,14.64-29,6.73-4.63,16-7.9,31.89-11.83,14.83-3.68,18.85-19.29,14.39-31-4.84-12.6-13.81-17-24.53-17.91-15.49-1.86-40,22-39.79,55.76-.21,2.8-.12,25.51-.12,34Zm-4.67-142.42c-18.42,0-34.33,12.19-34.28,33.26.07,17.73,14.28,27.22,19.35,34,7.66,10.21,11.82,22.3,12.25,40.8.34,14.73.32,29.25.39,34.4h4.06c-.06-5.38-.23-20.82,0-34.86.29-18.51,4.58-30.13,12.25-40.34,5.11-6.77,19.32-16.26,19.35-34,.07-21.07-15.82-33.26-34.24-33.26ZM278.67,413.19l-3.2,0c-1.75-8.49-12.73-12.84-19.67-11.35-4,.86-12.41,2.56-19.05,2.29-10.86-.4-18.07-10.6-18.9-16.79-.71-5.35,0-14.52,4.06-18.58,1.52,3.42,6.42,6.11,11.15,7.31,15.2,3.87,24.65,6.87,31.69,11.45a31,31,0,0,1,13.92,25.69Zm6.65,0-3.08,0a36.34,36.34,0,0,0-15.1-29c-6.72-4.63-16-7.9-31.88-11.83-14.85-3.68-18.85-19.29-14.38-31,4.82-12.6,13.8-17,24.53-17.91,15.46-1.86,40,22,39.78,55.76.21,2.8.13,25.51.13,34Zm-79.85,29.25A195.55,195.55,0,0,1,186,358.54,189.41,189.41,0,0,1,205.24,276a201.27,201.27,0,0,1,84.62-18.32c27.67,0,57.21,6.9,85.48,19.9,13,27.06,19.85,56.05,19.85,83.92S388.62,417,375.63,444a205.52,205.52,0,0,1-85,18.28c-27.83,0-56.45-6.67-85.14-19.88Zm85.14,24.41c-28.76,0-58.34-6.93-87.86-20.66l-.72-.34-.35-.73a199.85,199.85,0,0,1-20.27-86.56,193.93,193.93,0,0,1,20-85.21l.39-.72.73-.36a205.86,205.86,0,0,1,87.36-19.08c28.58,0,59.08,7.15,88.23,20.66l.74.34.35.74c13.5,27.87,20.62,57.79,20.62,86.59s-6.83,57.35-20.36,85.21l-.35.72-.76.35a210.29,210.29,0,0,1-87.72,19.05Zm214-92.14-7.63,29.16h19.51c7.67,0,18.12-3.78,20.7-13.27s-4.79-15.89-12.43-15.89Zm23.14-32.45c5.83,0,16.14-1.46,18.72-12.7C549.25,317.34,539.58,317,535,317l-16.31-.07-6,25.3Zm28.76-70.83c-22.92-.16-77.31,0-77.31,0l-26.38,53.21,13.37.07L435.06,448.83H518.4c38.2,0,67.59-27.25,67.59-56.4,0-12.07-1.64-29.13-20.64-36.08,18.45-9.29,35.26-27.24,35.26-47.54,0-22-15.93-37.25-44.14-37.4Zm271.17,59L808,377.63h21.31l-1.65-47.26Zm51.28-59.49H795.47l-29.85,53.44h12.5L714.18,448.83H777.7l12.8-30.51h40.17L832,448.83h54.55Z"/></svg>