<svg xmlns="http://www.w3.org/2000/svg" width="188.608" height="58.743" viewBox="0 0 188.608 58.743">
  <g id="Group_76" data-name="Group 76" transform="translate(-102.303 -206.228)">
    <path id="Path_111" data-name="Path 111" d="M161.005,239.086a.416.416,0,0,1-.057.216c-.081.109-.126.16-.132.214a23.748,23.748,0,0,1-1.309,5.5c-.1.265-.191.407-.454.242-.781-.49-1.543-1.008-2.329-1.488-1.3-.792-2.576-1.627-3.922-2.329-1.987-1.035-4.023-1.976-6.046-2.941a1.428,1.428,0,0,0-1.909.652,1.719,1.719,0,0,0,.59,2.039c.882.435,1.791.815,2.683,1.232.828.387,1.651.786,2.472,1.188a65.755,65.755,0,0,1,7.155,4.273c.408.269.418.477.214.863a30.136,30.136,0,0,1-3.659,5.485c-.492.58-.632.63-1.265.2-1.635-1.1-3.251-2.23-4.889-3.327a7.306,7.306,0,0,0-1.034-.488s.012-.013.008-.05a1.337,1.337,0,0,0-.268-.407c-.588-.462-1.2-.892-1.784-1.361-.764-.617-1.471-1.31-2.268-1.88a1.339,1.339,0,0,0-2.156.358,1.114,1.114,0,0,0,.266,1.633.068.068,0,0,0-.011.051c.044.125.061.243.129.3,1.088.927,2.16,1.875,3.282,2.76a42.347,42.347,0,0,0,3.464,2.524c.48.305.814.945,1.526.843,0,0-.008.011,0,.047a12.829,12.829,0,0,0,1.537,1.136c.686.394.708.357.377.995,0,0-.005-.009-.044-.007a4.832,4.832,0,0,0-.533.33c-1.218.879-2.417,1.783-3.663,2.619a1.13,1.13,0,0,1-.988.06,22.638,22.638,0,0,1-1.957-1.416c-.882-.654-1.765-1.308-2.667-2a4.922,4.922,0,0,0-.488-.293.065.065,0,0,0,.011-.051,10.875,10.875,0,0,0-1.034-1.1,1.807,1.807,0,0,0-1.86-.231,1.379,1.379,0,0,0-.215,2.3c.794.742,1.622,1.448,2.451,2.151a2.148,2.148,0,0,0,.571.246.061.061,0,0,0-.011.052c.82.7,1.634,1.37,2.452,2.042-.7,1.151-9.912,3-12.033,2.367l1.864-2.138a4.929,4.929,0,0,0,1-5.628,6.2,6.2,0,0,0-4.416-3.458,3.347,3.347,0,0,0,.119-.629,5.292,5.292,0,0,0-.1-.757,1.565,1.565,0,0,1,.028-.429,3.02,3.02,0,0,0-.8-2.6c-1.111-1.291-2.279-2.66-4.03-3.075a6.5,6.5,0,0,0-2.684.059,10.592,10.592,0,0,0-2.154.944,7.071,7.071,0,0,0-2.332-2.809,8.11,8.11,0,0,0-1.168-.689.073.073,0,0,0,.006-.054,2.621,2.621,0,0,0-1.9-.677c-1.19.15-1.925-.134-2.28-1.448s-1.619-2-2.578-2.884a4.979,4.979,0,0,0-2.718-1.147,4.641,4.641,0,0,0-3.189.784,11.833,11.833,0,0,0-1.1.878.944.944,0,0,1-.122-.205,5.868,5.868,0,0,1-.125-.826,34.788,34.788,0,0,1,.5-8.209,32.357,32.357,0,0,1,2.542-7.3c.358-.747.753-1.476,1.131-2.214,0,0,.012.013.043,0,.373-.564.714-1.111,1.055-1.659a26.06,26.06,0,0,1,4.821-5.249,2.185,2.185,0,0,0,.494-.215c1.339-.956,2.614-2.018,4.023-2.858a29.227,29.227,0,0,1,9.126-3.407,1.431,1.431,0,0,1,.417.039,8.381,8.381,0,0,1-1.208.619c-.671.324-1.351.637-1.992,1.014a15.963,15.963,0,0,0-4.343,3.567,24.909,24.909,0,0,0-3.129,5.655c-.841,1.829-1.622,3.686-2.454,5.52a5.181,5.181,0,0,0-.422,3.142,5.062,5.062,0,0,0,1.811,2.884,6.463,6.463,0,0,0,3.479,1.242,7.179,7.179,0,0,0,1.806-.2,5.861,5.861,0,0,0,3.689-1.758,22.18,22.18,0,0,0,2.059-2.612,6.146,6.146,0,0,1,5.5-2.823,22.57,22.57,0,0,1,2.4.226,7.937,7.937,0,0,1,1.737.293,21.426,21.426,0,0,1,4.552,2.205c.324.214.651.426.992.611.716.388,1.454.738,2.162,1.141.844.483,1.663,1.01,2.5,1.508.873.521,1.747,1.04,2.633,1.537a2.109,2.109,0,0,0,.612.131.059.059,0,0,0-.008.048,1.41,1.41,0,0,0,.344.349c1.1.62,2.206,1.22,3.3,1.843q2.284,1.3,4.553,2.627c.6.35,1.142.784,1.745,1.12.97.541,2.331.729,1.964,2.37C160.965,239.053,160.992,239.071,161.005,239.086Z" fill="#eb1d26"/>
    <path id="Path_112" data-name="Path 112" d="M290.2,226.868c-.317,1.969-.953,2.949-2.432,3.717.384.175.739.313,1.071.494a3.914,3.914,0,0,1,2.03,3.5,31.123,31.123,0,0,1-.081,4.54,4.328,4.328,0,0,1-4.267,4.051,23.266,23.266,0,0,1-2.332.1c-7.434.008-14.867,0-22.3.018-.556,0-.695-.151-.694-.711q.03-11.45.01-22.9a4.038,4.038,0,0,0,0-.539c-.08-.571.17-.676.712-.674q11.51.031,23.02.015a5.98,5.98,0,0,1,3.235.866,4.42,4.42,0,0,1,1.97,3.587c.12,1.286.053,2.589.061,3.936m-10.514,6.462h-8.9v3.176c.165.014.281.034.4.034q4.1,0,8.2,0c.438,0,.877-.022,1.313-.053a.711.711,0,0,0,.736-.769c.008-.5.022-1,0-1.495a.834.834,0,0,0-.909-.886c-.238-.012-.478-.005-.835-.007m-5.629-8.142h-3.278v2.884h.64c2.538,0,5.076,0,7.614,0,1.413,0,1.76.266,1.69-1.755-.033-.937-.253-1.138-1.211-1.137C277.73,225.185,275.952,225.186,274.054,225.188Z" fill="#f7951f"/>
    <path id="Path_113" data-name="Path 113" d="M132.825,206.8c1.4-.94,2.869-.492,4.275-.251a27.612,27.612,0,0,1,7.834,2.6,29.353,29.353,0,0,1,12.031,11.072,28.76,28.76,0,0,1,4.187,12.971c.045.589.074,1.179.122,1.936-.664-.368-1.2-.652-1.716-.951q-7.318-4.2-14.633-8.4c-1.981-1.137-3.922-2.352-5.954-3.39a14.683,14.683,0,0,0-10.034-1.457,7.967,7.967,0,0,0-4.733,3.419,24.977,24.977,0,0,1-1.8,2.3,4.6,4.6,0,0,1-3.988,1.344,2.992,2.992,0,0,1-2.46-1.13,2.5,2.5,0,0,1-.315-2.5c1.254-2.889,2.466-5.8,3.861-8.621a13.284,13.284,0,0,1,7.367-6.378C128.857,208.561,130.813,207.67,132.825,206.8Z" fill="#f6951f"/>
    <path id="Path_114" data-name="Path 114" d="M180.359,234.148c-3.945-.224-7.835-.421-11.721-.685a10.824,10.824,0,0,1-2.615-.561,3.839,3.839,0,0,1-2.782-3.492,41.167,41.167,0,0,1-.043-6.578c.243-2.9,2.035-4.149,4.815-4.329,1.414-.092,2.837-.038,4.255-.037,5.116,0,10.233-.016,15.348.037a4.481,4.481,0,0,1,4.046,1.912,6.219,6.219,0,0,1,.865,2.448,29.292,29.292,0,0,1,.036,3.577h-9.072c0-.323.014-.637,0-.948-.041-.767-.263-.993-1.039-1-1.179-.016-2.358-.005-3.537-.005-1.7,0-3.4-.024-5.1.018-.374.01-1.02.2-1.06.4a5.76,5.76,0,0,0,.047,1.909c.019.131.427.278.664.295,2.51.178,5.022.331,7.533.491,2.491.159,5,.2,7.469.508,2.538.317,4.362,1.384,4.6,4.6a25.407,25.407,0,0,1-.149,6.869,4.246,4.246,0,0,1-3.9,3.566,12.9,12.9,0,0,1-2.091.126q-9.143.013-18.286,0a7.3,7.3,0,0,1-3.6-.714,4.632,4.632,0,0,1-2.277-4.1c-.082-1.111-.016-2.234-.016-3.4h9.118c0,.426-.02.841,0,1.253.032.541.252.9.882.9,3.337-.011,6.674-.007,10.011-.005a.766.766,0,0,0,.87-.835c0-.04.009-.08.01-.12.055-1.645,0-2.01-1.734-1.993C181.411,234.262,180.913,234.189,180.359,234.148Z" fill="#fd1d26"/>
    <path id="Path_115" data-name="Path 115" d="M225.39,237.481a17.487,17.487,0,0,1-.952,2.93,5.488,5.488,0,0,1-4.4,2.724,16.521,16.521,0,0,1-2.449.131c-5.015.011-10.03,0-15.045,0a9.1,9.1,0,0,1-3.68-.681,5.506,5.506,0,0,1-3.266-4.417,14.279,14.279,0,0,1-.212-2.381c-.023-3.416-.056-6.834.016-10.249a10.711,10.711,0,0,1,.573-3.279c.944-2.686,3.177-3.678,5.782-3.741,4.732-.113,9.468-.051,14.2-.056,1.079,0,2.162-.04,3.235.043,1.941.149,3.763.668,4.951,2.362a6.988,6.988,0,0,1,.987,2.158,25.184,25.184,0,0,1,.366,6.225h-9.179c0-.615.024-1.191,0-1.764-.048-.954-.439-1.354-1.379-1.359q-4.315-.024-8.631,0c-.968,0-1.385.433-1.392,1.409q-.024,3.3,0,6.592c.01,1.1.4,1.473,1.5,1.477q4.2.017,8.391,0c1.126-.005,1.5-.4,1.521-1.529.011-.6,0-1.195,0-1.848.232-.015.425-.04.619-.04,2.637,0,5.274.009,7.912-.011.486,0,.669.128.649.638C225.448,234.354,225.43,235.891,225.39,237.481Z" fill="#fd1d26"/>
    <path id="Path_116" data-name="Path 116" d="M234.784,243.273c-2.1,0-4.137-.017-6.175.009-.473.006-.608-.123-.6-.6.016-2.5-.007-4.993-.009-7.49q0-7.793,0-15.586c0-.357.03-.714.049-1.107H237.5v10.674l.15.067c.136-.146.277-.288.407-.439q4.311-5.009,8.63-10.012a.9.9,0,0,1,.586-.3c3.976-.023,7.952-.023,11.928-.026a2.635,2.635,0,0,1,.343.065c-.874.9-1.681,1.73-2.491,2.56q-4.336,4.441-8.679,8.877c-.3.3-.34.481-.027.821q5.508,5.985,10.985,12a5.253,5.253,0,0,1,.311.44c-.274.018-.463.041-.653.041q-5.605,0-11.21.005a1.215,1.215,0,0,1-1.078-.462c-2.926-3.558-5.887-7.087-8.836-10.626a2.023,2.023,0,0,1-.157-.253l-.158.064v11.276Z" fill="#f79520"/>
    <path id="Path_117" data-name="Path 117" d="M116.9,254.306c1.484-1.721,2.969-3.387,4.391-5.1a2.846,2.846,0,0,1,4.264-.229c.3.317.655.582.983.871a2.7,2.7,0,0,1,.319,3.817c-1.384,1.565-2.836,3.07-4.247,4.612-1.007,1.1-2.007,2.209-2.98,3.341a.708.708,0,0,1-1.036.178c-1.551-.956-3.113-1.9-4.642-2.888-.707-.458-.672-.547-.1-1.177C114.86,256.6,115.863,255.469,116.9,254.306Z" fill="#f59522"/>
    <path id="Path_118" data-name="Path 118" d="M108.084,252.956c-1.007-1.419-.993-1.407.132-2.679,1.318-1.489,2.615-3,3.908-4.508a2.6,2.6,0,0,1,3.16-.509,12.231,12.231,0,0,1,2.218,1.971,2.38,2.38,0,0,1-.149,3.154q-2.584,2.894-5.161,5.794c-.184.206-.378.4-.613.655A24.543,24.543,0,0,1,108.084,252.956Z" fill="#f59622"/>
    <path id="Path_119" data-name="Path 119" d="M126.986,264.514A25.865,25.865,0,0,1,121.423,263c.91-1.029,1.772-2.005,2.7-3.015.476-.514.885-.994,1.293-1.474,0,0,.007.007.045,0,.615-.632,1.2-1.252,1.764-1.889a2.23,2.23,0,0,1,2.382-.637c.453.174.88.416,1.319.628,0,0,.014-.015.013.033a.685.685,0,0,0,.182.276,2.673,2.673,0,0,1,.275,3.771,6.488,6.488,0,0,0-.7.936s.006.006-.037.009a25.349,25.349,0,0,0-1.956,2.112A1.669,1.669,0,0,1,126.986,264.514Z" fill="#f49523"/>
    <path id="Path_120" data-name="Path 120" d="M104.011,245.281c-.278-.924-.547-1.8-.792-2.685-.051-.182-.1-.47-.007-.571a12.934,12.934,0,0,1,2.195-2.152,2.393,2.393,0,0,1,2.983.368c.484.415.958.841,1.427,1.271a2.638,2.638,0,0,1,.12,3.476c-1.368,1.415-2.634,2.928-4.014,4.478A22,22,0,0,1,104.011,245.281Z" fill="#f49623"/>
    <path id="Path_121" data-name="Path 121" d="M282.049,250.648c-.145.4-.287.753-.4,1.115-.09.288-.189.471-.561.481-.395.011-.517-.184-.625-.487-.406-1.134-.82-2.265-1.313-3.373v3.809h-1.164v-5.828a10.6,10.6,0,0,1,1.312.019.664.664,0,0,1,.4.4c.372.99.711,1.993,1.064,2.99.07.2.156.388.3.752.387-1.074.723-1.978,1.037-2.889.473-1.371.467-1.373,2-1.226v5.768h-1.127v-3.81l-.088-.028Z" fill="#0b0b0b"/>
    <path id="Path_122" data-name="Path 122" d="M149.057,230.645a1.279,1.279,0,0,1-.6-.092c-.886-.5-1.76-1.016-2.633-1.537-.836-.5-1.655-1.025-2.5-1.508-.708-.4-1.446-.753-2.162-1.141-.341-.185-.668-.4-.992-.611a21.426,21.426,0,0,0-4.552-2.205,7.937,7.937,0,0,0-1.737-.293,22.57,22.57,0,0,0-2.4-.226,6.146,6.146,0,0,0-5.5,2.823,22.18,22.18,0,0,1-2.059,2.612,5.861,5.861,0,0,1-3.689,1.758,7.179,7.179,0,0,1-1.806.2,6.463,6.463,0,0,1-3.479-1.242,5.062,5.062,0,0,1-1.811-2.884,5.181,5.181,0,0,1,.422-3.142c.832-1.834,1.613-3.691,2.454-5.52a24.909,24.909,0,0,1,3.129-5.655,15.963,15.963,0,0,1,4.343-3.567c.641-.377,1.321-.69,1.992-1.014a8.381,8.381,0,0,0,1.208-.619,1.431,1.431,0,0,0-.417-.039,29.227,29.227,0,0,0-9.126,3.407c-1.409.84-2.684,1.9-4.023,2.858a1.776,1.776,0,0,1-.458.2c.841-.7,1.687-1.463,2.617-2.1a28.917,28.917,0,0,1,10.976-4.548c.695-.135,1.4-.2,2.1-.3l.044.14c-.776.34-1.541.707-2.329,1.016a16.2,16.2,0,0,0-6.955,5.006,19.985,19.985,0,0,0-2.6,4.635c-.877,2.035-1.754,4.07-2.672,6.086a4.675,4.675,0,0,0,3.327,6.8,7.056,7.056,0,0,0,6.315-1.389,13.5,13.5,0,0,0,1.81-2.135c.8-1.014,1.462-2.193,2.681-2.764a8.076,8.076,0,0,1,2.535-.794,13.912,13.912,0,0,1,8.6,2C142.416,226.782,145.735,228.688,149.057,230.645Z" fill="#d55359"/>
    <path id="Path_123" data-name="Path 123" d="M171.34,249.286v-2.85a1.274,1.274,0,0,1,1.707.671,16.9,16.9,0,0,0,1.841,2.8v-3.51H176.1v5.748c-.995.228-1.115.18-1.628-.656-.594-.968-1.186-1.937-1.888-2.894v3.6H171.34Z" fill="#080808"/>
    <path id="Path_124" data-name="Path 124" d="M255.037,252.168c-.962.011-1.876.011-2.821.011v-5.72c.98,0,1.971-.052,2.952.021a1.249,1.249,0,0,1,1.172.969,1.46,1.46,0,0,1-.652,1.741,1.408,1.408,0,0,1,.828,1.644,1.61,1.61,0,0,1-1.479,1.334m-.9-.931c.44,0,.942.05,1.116-.468a.983.983,0,0,0-.1-.828c-.486-.522-1.134-.219-1.7-.271v1.568h.693m-.743-2.987.034.563c.617-.068,1.278.2,1.679-.411a.809.809,0,0,0-.07-.759c-.443-.5-1.046-.258-1.643-.271Z" fill="#090909"/>
    <path id="Path_125" data-name="Path 125" d="M228.562,252.164c-.376.035-.713.035-1.1.035v-5.771c.95,0,1.907-.057,2.852.019a1.478,1.478,0,0,1,1.4,1.209,1.694,1.694,0,0,1-.663,1.907c-.1.067-.181.147-.294.239.411.79.812,1.559,1.221,2.343-1.2.224-1.234.207-1.716-.762a3.884,3.884,0,0,1-.327-.638c-.188-.675-.638-.783-1.332-.6,0,.644,0,1.316-.038,2.021m.08-3.184a10.622,10.622,0,0,0,1.1.076.848.848,0,0,0,.007-1.692c-.366-.013-.734,0-1.119,0C228.625,247.912,228.625,248.387,228.642,248.98Z" fill="#0b0b0b"/>
    <path id="Path_126" data-name="Path 126" d="M264.124,246.366a7.1,7.1,0,0,1,.771.053,1.592,1.592,0,0,1,1.468,1.213,1.721,1.721,0,0,1-.673,1.958l-.278.2,1.215,2.327c-.961.306-1.242.2-1.657-.628a5.28,5.28,0,0,1-.375-.748c-.2-.652-.632-.792-1.278-.609v2.05h-1.2v-5.815h2.011m.9,2.412a.842.842,0,0,0-.027-1.146c-.481-.484-1.1-.232-1.671-.272v1.811C263.908,249.057,264.435,248.953,265.027,248.778Z" fill="#090909"/>
    <path id="Path_127" data-name="Path 127" d="M186.161,248.383c-.284.53-.56,1.012-.9,1.612l1.118,2.14c-1.15.246-1.221.214-1.705-.734a4.5,4.5,0,0,1-.349-.693c-.211-.678-.669-.742-1.3-.555v2.04h-1.18v-5.758a25.826,25.826,0,0,1,2.906.024c1,.113,1.417.761,1.415,1.924m-1.681.6a.818.818,0,0,0,.415-1.058c-.1-.453-.458-.563-.864-.572-.315-.006-.63,0-.979,0v1.741C183.52,249.067,183.952,249.044,184.48,248.982Z" fill="#0b0b0b"/>
    <path id="Path_128" data-name="Path 128" d="M225.174,251.713l-1.145-1.787-.2-.038a5.58,5.58,0,0,0-.443,1.06,6.532,6.532,0,0,0-.017,1.234h-1.179v-5.768h1.173v2.544a17.686,17.686,0,0,0,1.407-1.851c.492-.863,1.206-.8,2.054-.691l-2.019,2.542,2.075,3.169C225.935,252.375,225.568,252.289,225.174,251.713Z" fill="#090909"/>
    <path id="Path_129" data-name="Path 129" d="M189.877,246.3a1.978,1.978,0,0,1,1.816,1.868h-1.117c-.337-.753-.7-1.007-1.318-.917s-1,.512-1.061,1.325a6.543,6.543,0,0,0,.046,1.607,1.346,1.346,0,0,0,1.91,1.04c.618-.237.245-.749.367-1.185h-1.066v-.908h2.269a9.235,9.235,0,0,1-.048,2.152,1.6,1.6,0,0,1-1.033.844c-2.131.594-3.68-.4-3.7-2.556a6.428,6.428,0,0,1,.192-1.712C187.428,246.756,188.356,246.251,189.877,246.3Z" fill="#090909"/>
    <path id="Path_130" data-name="Path 130" d="M232.66,247.969V246.4h3.9v.937h-2.647v1.381h2.24v.96h-2.244v1.536h2.668v.982H232.66Z" fill="#0c0c0c"/>
    <path id="Path_131" data-name="Path 131" d="M177.178,247.851V246.4h3.889v.94h-2.624v1.373h2.244v.941h-2.234v1.567h2.631v.971h-3.906Z" fill="#090909"/>
    <path id="Path_132" data-name="Path 132" d="M243.116,251.623c-.22-.387-.408-.744-.653-1.21h1.269c.337.751.7,1.012,1.423.871a.946.946,0,0,0,.665-.517.934.934,0,0,0-.424-.722,11.955,11.955,0,0,0-1.316-.56,3.852,3.852,0,0,1-.812-.5,1.421,1.421,0,0,1-.092-2.075,2.618,2.618,0,0,1,3.435,0,5.955,5.955,0,0,1,.634,1.149c-.706-.033-1.253.26-1.573-.5-.189-.449-1.146-.436-1.493-.054a.516.516,0,0,0,.151.891,8.254,8.254,0,0,0,1.157.478c1.242.449,1.781,1.16,1.591,2.119a1.9,1.9,0,0,1-2.285,1.268A6.8,6.8,0,0,1,243.116,251.623Z" fill="#0b0b0b"/>
    <path id="Path_133" data-name="Path 133" d="M165.375,248.446c.66.288,1.306.507,1.892.833a1.469,1.469,0,0,1,.792,1.711,1.543,1.543,0,0,1-1.324,1.219,2.94,2.94,0,0,1-2.356-.372,1.564,1.564,0,0,1-.766-1.436h1.122a1.21,1.21,0,0,0,1.614.855.82.82,0,0,0,.494-.5.76.76,0,0,0-.309-.625,15.322,15.322,0,0,0-1.414-.627,4.216,4.216,0,0,1-.732-.4,1.44,1.44,0,0,1-.085-2.314,2.7,2.7,0,0,1,3.128-.031,6.79,6.79,0,0,1,.859,1.269h-1.34c-.335-.666-.735-.924-1.324-.737a.976.976,0,0,0-.582.5C164.989,247.948,165.227,248.208,165.375,248.446Z" fill="#0b0b0b"/>
    <path id="Path_134" data-name="Path 134" d="M269.539,248.724a8.285,8.285,0,0,1,1.384.653,1.5,1.5,0,0,1-.251,2.67,2.706,2.706,0,0,1-2.98-.376,5.253,5.253,0,0,1-.782-1.275h1.323a1.179,1.179,0,0,0,1.563.87c.211-.061.5-.291.52-.474a.827.827,0,0,0-.313-.677,14.371,14.371,0,0,0-1.415-.624,3.987,3.987,0,0,1-.772-.449,1.415,1.415,0,0,1-.084-2.192,2.636,2.636,0,0,1,3.348.041,5.978,5.978,0,0,1,.657,1.145h-1.3c-.331-.7-.767-.961-1.379-.732a.934.934,0,0,0-.533.547c-.037.163.2.433.379.588A2.34,2.34,0,0,0,269.539,248.724Z" fill="#0b0b0b"/>
    <path id="Path_135" data-name="Path 135" d="M289.908,251.22c.121.323.227.6.369.973-.446,0-.955.15-1.215-.04-.283-.208-.336-.731-.508-1.162-.577,0-1.175-.025-1.767.017a.647.647,0,0,0-.434.357c-.4.987-.421,1.007-1.55.776.689-1.848,1.36-3.7,2.091-5.518.066-.166.525-.244.8-.234a.729.729,0,0,1,.538.372c.577,1.463,1.115,2.941,1.679,4.459m-1.763-1.554-.625-1.8-.725,2.163c.443,0,.816.012,1.186-.012C288.049,250.009,288.108,249.857,288.145,249.666Z" fill="#0a0a0a"/>
    <path id="Path_136" data-name="Path 136" d="M257.439,247.73v-1.337h3.9v.928h-2.633V248.7h2.235v.962H258.7v1.568h2.66v.961h-3.922Z" fill="#0a0a0a"/>
    <path id="Path_137" data-name="Path 137" d="M236.894,251.973c.651-1.741,1.308-3.431,1.9-5.143.161-.465.427-.467.8-.475a.6.6,0,0,1,.7.457c.638,1.777,1.315,3.539,2.017,5.412a4.266,4.266,0,0,1-1.1-.027c-.171-.05-.329-.361-.376-.579-.106-.491-.334-.695-.855-.638a13.456,13.456,0,0,1-1.451.011c-.079.2-.157.382-.223.567a.99.99,0,0,1-1.411.62c-.024-.009-.013-.1,0-.2m2.864-1.947.509-.037-.71-2.15-.737,2.187Z" fill="#090909"/>
    <path id="Path_138" data-name="Path 138" d="M218.523,248.862c.422,1.118.825,2.193,1.263,3.363a5.475,5.475,0,0,1-1.063-.02.623.623,0,0,1-.361-.434c-.106-.664-.464-.874-1.108-.79a9.423,9.423,0,0,1-1.234.01c-.607,1.356-.607,1.356-1.719,1.159.7-1.868,1.373-3.733,2.112-5.573.063-.156.544-.193.83-.191a.619.619,0,0,1,.464.309c.293.7.536,1.414.816,2.167m-1.091.194-.412-1.189-.711,2.116h1.439C217.64,249.668,217.551,249.407,217.432,249.056Z" fill="#090909"/>
    <path id="Path_139" data-name="Path 139" d="M275.686,251.027c-.326-.028-.607-.01-.884-.04-.771-.082-1.422-.015-1.522.971-.01.1-.237.236-.377.255a7.62,7.62,0,0,1-.973.012c.391-1.061.751-2.046,1.116-3.029.312-.841.616-1.687.961-2.514a.609.609,0,0,1,.468-.3c.285,0,.759.044.823.2.734,1.827,1.406,3.68,2.137,5.639a7.853,7.853,0,0,1-1.055-.015.589.589,0,0,1-.343-.319c-.129-.267-.206-.559-.351-.865M275.065,249l-.4-1.15-.708,2.136H275.4C275.286,249.649,275.189,249.371,275.065,249Z" fill="#090909"/>
    <path id="Path_140" data-name="Path 140" d="M147.123,250.658a4.527,4.527,0,0,1,1.025.448c1.638,1.1,3.254,2.225,4.889,3.327.633.427.773.377,1.265-.2a30.136,30.136,0,0,0,3.659-5.485c.2-.386.194-.594-.214-.863a65.755,65.755,0,0,0-7.155-4.273c-.821-.4-1.644-.8-2.472-1.188-.892-.417-1.8-.8-2.683-1.232a1.719,1.719,0,0,1-.59-2.039,1.428,1.428,0,0,1,1.909-.652c2.023.965,4.059,1.906,6.046,2.941,1.346.7,2.624,1.537,3.922,2.329.786.48,1.548,1,2.329,1.488.263.165.357.023.454-.242a23.748,23.748,0,0,0,1.309-5.5.375.375,0,0,1,.116-.177c-.224,1.366-.458,2.758-.762,4.135-.166.747-.452,1.467-.708,2.278-.726-.465-1.345-.853-1.956-1.252a71.74,71.74,0,0,0-10.681-5.726,1.246,1.246,0,1,0-1.029,2.239c1.793.868,3.638,1.643,5.37,2.62,2.357,1.33,4.627,2.815,6.938,4.228.285.175.3.363.158.648a29.77,29.77,0,0,1-4.2,6.3c-.195.227-.365.331-.653.134C151.323,253.526,149.226,252.113,147.123,250.658Z" fill="#d55359"/>
    <path id="Path_141" data-name="Path 141" d="M206.063,250.192c-.043.675-.043,1.312-.043,1.991h-1.181v-5.757a25.876,25.876,0,0,1,2.895.023,1.738,1.738,0,0,1,1.559,1.883,1.758,1.758,0,0,1-1.694,1.762c-.493.059-1,.043-1.536.1M206,248.15v.981c.522,0,.96.036,1.39-.009a.725.725,0,0,0,.672-.835c-.011-.464-.2-.842-.693-.9a11.953,11.953,0,0,0-1.369-.011Z" fill="#070707"/>
    <path id="Path_142" data-name="Path 142" d="M201.237,248.349h-.713c-.258-.364-.408-.755-.691-.938a1.11,1.11,0,0,0-1.677.728,7.721,7.721,0,0,0-.077,1.9c.054.826.362,1.162.964,1.233.758.091,1.041-.108,1.353-.975h1.093a1.875,1.875,0,0,1-1.366,1.866,2.4,2.4,0,0,1-3.292-2.055c-.151-1.226-.162-2.456.928-3.353a2.382,2.382,0,0,1,3.735,1.144C201.542,248.091,201.69,248.353,201.237,248.349Z" fill="#0c0c0c"/>
    <path id="Path_143" data-name="Path 143" d="M212.758,248.326v3.861h-1.191v-4.819h-1.754v-.957h4.706v.943h-1.761Z" fill="#0a0a0a"/>
    <path id="Path_144" data-name="Path 144" d="M106.666,220.143c-.34.725-.735,1.454-1.093,2.2a32.357,32.357,0,0,0-2.542,7.3,34.788,34.788,0,0,0-.5,8.209,5.868,5.868,0,0,0,.125.826.944.944,0,0,0,.122.205,11.833,11.833,0,0,1,1.1-.878,4.641,4.641,0,0,1,3.189-.784,4.979,4.979,0,0,1,2.718,1.147c.959.882,2.223,1.567,2.578,2.884s1.09,1.6,2.28,1.448a2.563,2.563,0,0,1,1.892.688,6.545,6.545,0,0,0-3.55-.463c-.1.018-.327-.2-.353-.338a5.316,5.316,0,0,0-1.858-3.057A6.983,6.983,0,0,0,107.8,237.6a4.737,4.737,0,0,0-4.659,1.326c-.112.113-.229.223-.347.329a.939.939,0,0,1-.2.082c-.053-.3-.126-.574-.151-.855a29.436,29.436,0,0,1,4.108-18.239A.344.344,0,0,1,106.666,220.143Z" fill="#d55b60"/>
    <path id="Path_145" data-name="Path 145" d="M129.661,252.075a2.846,2.846,0,0,1,.112.71,3.347,3.347,0,0,1-.119.629,6.2,6.2,0,0,1,4.416,3.458,4.929,4.929,0,0,1-1,5.628l-1.864,2.138c2.121.634,11.333-1.216,12.033-2.367-.818-.672-1.632-1.341-2.445-2.053a14.6,14.6,0,0,1,1.268.827c.56.407,1.107.833,1.666,1.255-1.483,1.4-10.362,3.15-13.009,2.549.133-.177.233-.333.355-.47.636-.716,1.282-1.423,1.916-2.14a4.842,4.842,0,0,0-.533-7.081,7.709,7.709,0,0,0-1.416-.986,12.621,12.621,0,0,0-1.656-.58C129.471,253.1,129.557,252.609,129.661,252.075Z" fill="#d55b60"/>
    <path id="Path_146" data-name="Path 146" d="M170.229,249.046v3.144h-1.2V246.4h1.2Z" fill="#161616"/>
    <path id="Path_147" data-name="Path 147" d="M248.268,246.364h.914v5.814h-1.14c-.011-.155-.034-.325-.035-.495,0-1.6-.008-3.193.008-4.789A1.066,1.066,0,0,1,248.268,246.364Z" fill="#0c0c0c"/>
    <path id="Path_148" data-name="Path 148" d="M202.45,251.647v-5.241h1.177v5.787h-1.135C202.479,252.039,202.465,251.871,202.45,251.647Z" fill="#0d0d0d"/>
    <path id="Path_149" data-name="Path 149" d="M193.993,249.046v3.139h-1.172V246.4h1.172Z" fill="#080808"/>
    <path id="Path_150" data-name="Path 150" d="M116.545,243.469a5.734,5.734,0,0,1,1.156.651,7.071,7.071,0,0,1,2.332,2.809,10.592,10.592,0,0,1,2.154-.944,6.5,6.5,0,0,1,2.684-.059c1.751.415,2.919,1.784,4.03,3.075a2.982,2.982,0,0,1,.808,2.552,5.674,5.674,0,0,0-1.534-3.04,14.619,14.619,0,0,0-2.575-2,4.523,4.523,0,0,0-5.1.545c-.112.083-.222.169-.337.248a.928.928,0,0,1-.213.045C119.368,245.613,117.9,244.615,116.545,243.469Z" fill="#d55b60"/>
    <path id="Path_151" data-name="Path 151" d="M161.036,239.051c-.044.02-.071,0-.069-.01.367-1.641-.994-1.829-1.964-2.37-.6-.336-1.149-.77-1.745-1.12q-2.265-1.332-4.553-2.627c-1.1-.623-2.205-1.223-3.3-1.843a1.242,1.242,0,0,1-.339-.357c1.06.537,2.129,1.1,3.18,1.7,2.817,1.6,5.623,3.214,8.441,4.81.4.225.61.472.48.953C161.093,238.453,161.1,238.739,161.036,239.051Z" fill="#d55359"/>
    <path id="Path_152" data-name="Path 152" d="M149.292,255.352c-.7.14-1.036-.5-1.516-.805a42.347,42.347,0,0,1-3.464-2.524c-1.122-.885-2.194-1.833-3.282-2.76a.662.662,0,0,1-.123-.31c.877.671,1.73,1.414,2.63,2.1,1.7,1.283,3.419,2.531,5.13,3.794A7.658,7.658,0,0,1,149.292,255.352Z" fill="#d55359"/>
    <path id="Path_153" data-name="Path 153" d="M140.908,248.866a1.06,1.06,0,0,1-.262-1.588,1.339,1.339,0,0,1,2.156-.358c.8.57,1.5,1.263,2.268,1.88.582.469,1.2.9,1.784,1.361a1.221,1.221,0,0,1,.264.415c-.825-.566-1.66-1.162-2.47-1.792-.594-.462-1.153-.971-1.73-1.457a1.306,1.306,0,0,0-1.776-.212C140.619,247.508,140.547,248.023,140.908,248.866Z" fill="#d55359"/>
    <path id="Path_154" data-name="Path 154" d="M107.763,218.479q-.453.806-1.023,1.644Q107.193,219.319,107.763,218.479Z" fill="#d55b60"/>
  </g>
</svg>
