<svg id="Layer_1" data-name="Layer 1" xmlns="http://www.w3.org/2000/svg" viewBox="0 0 650 120"><defs><style>.cls-1{fill:#e61317;}.cls-2{fill:#fff;}.cls-2,.cls-3{fill-rule:evenodd;}.cls-3{fill:#070203;}</style></defs><circle class="cls-1" cx="82.94" cy="60" r="55.58" transform="translate(-5.93 9.19) rotate(-6.12)"/><path class="cls-2" d="M31.74,81.65a55.69,55.69,0,0,1,1.87-47.28c20.08-2.92,38.6,5.35,66.86,4.67,7.14-.18,16.43-1.49,23.12-1.14-1.79,3.58-4.57,5.8-7.58,8-11,8-19.92,12.19-35.45,11-9.19-.68-18.54-2.25-27.67-3.42-4.71-.61-9.67-1.24-14.21.24-3.25,1.06-7.93,4.62-8.7,6.62,14.12,6.38,33.72,7,48.94,2.89,6.8-1.83,9.11-3.56,14-5.21-.39,3.21-6.45,10.71-9.27,12.88a67.43,67.43,0,0,1-6.42,4.82c-12.65,8.09-30.26,9.58-45.43,5.9Z"/><path class="cls-3" d="M378.63,69.38c-12.48,0-13.51-16.67-4.89-20.66,11.41-5.27,18.95,8.72,12.1,17.36a10.54,10.54,0,0,1-7.21,3.3Zm-21-46.92V78.39h10.51v-4.5c2.13,1.42,4.73,5.25,12,5.25a18.92,18.92,0,0,0,19.14-18.76c0-6.46-.72-12-5.15-16.62C387,36.32,375,35.58,368.5,43.11V21.33h-9.76C357.87,21.33,357.61,21.6,357.61,22.46Z"/><path class="cls-3" d="M176.67,58.87c0-4,1.28-6.94,4-9.13a5.81,5.81,0,0,1,1.61-1c11.83-5.51,18.88,9.68,12.13,17.38-5.38,6.15-17.75,3.29-17.75-7.24ZM166.16,23.21V78.39h10.51v-4.5a26.86,26.86,0,0,1,2.19,1.94c11.1,9,29-1.06,29-14.7,0-6.44-.29-12.35-5.15-17.37-5.47-5.67-13.82-7.63-20.76-4.41-1.8.84-3.2,2.27-4.87,3.38V22.09h-9.76C166.42,22.09,166.16,22.35,166.16,23.21Z"/><path class="cls-3" d="M416.55,58.5a12.64,12.64,0,0,1,2.79-7.72c4.79-5.38,17.1-4.61,17.1,8.47a10.18,10.18,0,0,1-2.7,7c-5.55,5.88-17.19,3.14-17.19-7.8ZM405.66,57c0,6.74,1,12,5.34,16.43,4.91,5,13.47,7.51,20.57,4.22,2.51-1.17,3-2.5,4.87-3.76v4.5H447V38.6H436.07v4.13c-.91-.61-1.1-1-2-1.73C422.81,32.4,405.66,42,405.66,57Z"/><path class="cls-3" d="M225.1,58.5C225.1,44.66,245,43,245,59.25a10.18,10.18,0,0,1-2.7,7,10.37,10.37,0,0,1-2.81,2.08C233,71.46,225.1,67.15,225.1,58.5Zm-10.89-.75c0,18.82,15.9,24.54,25.91,19.9,2.52-1.17,3-2.5,4.87-3.76v4.5h10.52V38.6H244.62v4.13c-3.08-2.06-4.59-4.88-12-4.88C222,37.85,214.21,47.22,214.21,57.75Z"/><path class="cls-3" d="M311.81,23.21V78.39H322.7V61.5c3.09,2.07,13.41,16.44,15.79,16.87,2,.36,8.74,0,11.24,0a9.84,9.84,0,0,0-1.93-2.57l-6.49-8.15c-1.48-1.88-2.7-3.32-4.18-5.2s-3.05-3.62-4.29-5.47l8.26-9c1.59-2.09,6.86-7.3,8.25-9.39H336.59c-.47.88-12.3,14.7-13.89,15.77V22.09h-9.76C312.08,22.09,311.81,22.35,311.81,23.21Z"/><path class="cls-3" d="M554.32,47.61h2.25c4,0,6.36,3.07,7.13,6.38H546.81c.74-3.16,3.64-6.38,7.51-6.38Zm-18.77,9c0,6.61.66,12.18,6.09,17.18,6.48,6,16.35,6.76,24.43,3.21a16.91,16.91,0,0,0,7-5.75l-6.76-6.38c-2.29,1.53-3.83,4.5-9.76,4.5-4.63,0-9.42-3.39-9.76-7.5h27.78c0-7.36.22-12.71-5.72-18.68-6.35-6.37-18-7.1-25.07-2a17.51,17.51,0,0,0-6.44,7.83A18.91,18.91,0,0,0,535.55,56.62Z"/><path class="cls-3" d="M595.17,43.17c0-.13.28-.28.28-.22l.16-4.35H584.35V78.39c13.7,0,11.26,2.24,11.26-9,0-3.37,0-6.75,0-10.13,0-3.83.15-6.11,1.81-8.33,3.76-5,11-3.54,12.84-.69,2.44,3.82,1.49,22.2,1.49,28.16h10.89V54.74c0-4.56-1.11-9.64-3.28-12.11-6.85-7.78-19.8-5.05-23.75.85Z"/><path class="cls-3" d="M467.23,43.48V38.6H456.34V78.39h10.89c0-6.48-1.09-23.21,2-27.32,3.71-5,11.37-4.17,13.26-.29,2,4.19,1.29,21.93,1.29,27.61h10.89V55.87c0-10.71-3.56-18-15-18C472.3,37.85,469.63,41.88,467.23,43.48Z"/><path class="cls-3" d="M276.53,43.48V38.6H265.64V78.39h10.89v-21c0-11.93,16.14-13.38,16.14-2.25V78.39h10.89V52.12c0-12.94-12.54-17.12-21.91-12.53C278.83,41,278.53,42.14,276.53,43.48Z"/><path class="cls-3" d="M507,27.72V38.6h-6v9h6V66.76c0,13.62,13,14.84,24,9-.69-3-2-5.8-2.63-8.64-3.11.73-10.51,5.12-10.51-2.25V47.61h10.89v-9H517.9V25.84Z"/><path class="cls-3" d="M168.4,95.79h4.66a12.88,12.88,0,0,1,2.06.12,2.84,2.84,0,0,1,1.22.48,2.78,2.78,0,0,1,.89,1,2.75,2.75,0,0,1-.08,2.85,2.71,2.71,0,0,1-1.19,1,3.05,3.05,0,0,1,1.63,1.06,2.81,2.81,0,0,1,.57,1.76,3.46,3.46,0,0,1-.37,1.55,3,3,0,0,1-1,1.2,3.3,3.3,0,0,1-1.58.55c-.39,0-1.33.07-2.83.08h-4V95.79Zm2.36,1.94v2.68h1.54c.91,0,1.48,0,1.7,0A1.49,1.49,0,0,0,175,100a1.23,1.23,0,0,0,.35-.91,1.24,1.24,0,0,0-.3-.87,1.29,1.29,0,0,0-.88-.41c-.24,0-.91,0-2,0Zm0,4.62v3.12h2.18a10.35,10.35,0,0,0,1.61-.07,1.48,1.48,0,0,0,.86-.46,1.45,1.45,0,0,0,.33-1,1.53,1.53,0,0,0-.26-.89,1.44,1.44,0,0,0-.73-.53,8,8,0,0,0-2.09-.17Zm24.81,5.09H193l-1-2.65h-4.68l-1,2.65h-2.49l4.52-11.65h2.5l4.66,11.65Zm-4.31-4.62-1.62-4.31-1.57,4.31Zm10.5,4.62V95.79H204l4.79,7.81V95.79H211v11.65h-2.35l-4.72-7.66v7.66Zm16.71,0V95.79h2.36V101l4.75-5.16h3.16l-4.39,4.54,4.62,7.11h-3L222.72,102l-1.89,2v3.52Z"/><path class="cls-3" d="M242,107.44V95.79h3.77a14.42,14.42,0,0,1,2.8.17,3.08,3.08,0,0,1,1.67,1.15,3.61,3.61,0,0,1,.68,2.27,3.8,3.8,0,0,1-.39,1.8,3.2,3.2,0,0,1-1,1.15,3.35,3.35,0,0,1-1.21.55,13.59,13.59,0,0,1-2.44.17h-1.53v4.39Zm2.36-9.68v3.32h1.28a6.2,6.2,0,0,0,1.86-.18,1.54,1.54,0,0,0,1-1.49,1.51,1.51,0,0,0-.37-1,1.61,1.61,0,0,0-.94-.52,11.64,11.64,0,0,0-1.69-.08Zm13,9.68V95.79H266v2h-6.26v2.59h5.82v2h-5.82v3.15h6.49v2Zm15.34,0V95.79h3.53l2.09,7.95,2.06-7.95h3.55v11.65h-2.18V98.27l-2.3,9.17h-2.27l-2.28-9.17v9.17Zm18.11-11.65h4.66a12.88,12.88,0,0,1,2.06.12,2.9,2.9,0,0,1,1.22.48,3,3,0,0,1,.89,1,2.61,2.61,0,0,1,.36,1.36,2.78,2.78,0,0,1-1.63,2.52A3.09,3.09,0,0,1,300,102.3a2.81,2.81,0,0,1,.57,1.76,3.46,3.46,0,0,1-.37,1.55,3.13,3.13,0,0,1-1,1.2,3.34,3.34,0,0,1-1.58.55c-.39,0-1.34.07-2.84.08h-4V95.79Zm2.36,1.94v2.68h1.54c.91,0,1.48,0,1.7,0a1.52,1.52,0,0,0,.95-.41,1.22,1.22,0,0,0,.34-.91,1.29,1.29,0,0,0-.29-.87,1.31,1.31,0,0,0-.89-.41c-.23,0-.9,0-2,0Zm0,4.62v3.12h2.18a10.44,10.44,0,0,0,1.61-.07,1.37,1.37,0,0,0,1.18-1.46,1.53,1.53,0,0,0-.25-.89,1.46,1.46,0,0,0-.74-.53,7.94,7.94,0,0,0-2.08-.17Zm24.4,5.09H315l-1-2.65h-4.68l-1,2.65H305.9l4.52-11.65h2.5l4.66,11.65Zm-4.31-4.62-1.62-4.31-1.57,4.31Zm10.09,4.62V95.79h2.28l4.8,7.81V95.79h2.18v11.65h-2.36l-4.72-7.66v7.66Zm21.69-4.28v-2h5.06v4.65a6.36,6.36,0,0,1-2.14,1.27,7.82,7.82,0,0,1-2.84.54,6.34,6.34,0,0,1-3.18-.76,4.88,4.88,0,0,1-2-2.2,7.08,7.08,0,0,1-.69-3.11,6.69,6.69,0,0,1,.77-3.24,5.11,5.11,0,0,1,2.23-2.18,6,6,0,0,1,2.79-.58,5.57,5.57,0,0,1,3.39.91A4.12,4.12,0,0,1,350,99l-2.34.44a2.5,2.5,0,0,0-.92-1.36,2.8,2.8,0,0,0-1.7-.49,3.14,3.14,0,0,0-2.44,1,4.1,4.1,0,0,0-.91,2.9,4.59,4.59,0,0,0,.92,3.12,3.07,3.07,0,0,0,2.41,1,4.1,4.1,0,0,0,1.48-.29,5,5,0,0,0,1.27-.71v-1.48Zm11.76-7.37h2.36v6.32a12.55,12.55,0,0,0,.09,1.94,1.86,1.86,0,0,0,.71,1.15,2.45,2.45,0,0,0,1.54.44,2.34,2.34,0,0,0,1.49-.41,1.64,1.64,0,0,0,.61-1,14.64,14.64,0,0,0,.1-2V95.79h2.36v6.13a15.38,15.38,0,0,1-.19,3,3.36,3.36,0,0,1-.7,1.47,3.57,3.57,0,0,1-1.37,1,6,6,0,0,1-2.23.35,6.43,6.43,0,0,1-2.53-.38,3.53,3.53,0,0,1-1.35-1A3.18,3.18,0,0,1,357,105a14.42,14.42,0,0,1-.23-3V95.79Zm16.27,11.65V95.79h2.28l4.8,7.81V95.79h2.18v11.65H380l-4.72-7.66v7.66Zm26.77,0h-2.54l-1-2.65h-4.67l-1,2.65h-2.49l4.52-11.65h2.49l4.67,11.65Zm-4.31-4.62-1.62-4.31-1.58,4.31Zm10.09,4.62V95.79h2.28l4.79,7.81V95.79h2.18v11.65h-2.35l-4.72-7.66v7.66Z"/><path class="cls-3" d="M430.06,95.79h4.29a8.37,8.37,0,0,1,2.22.22,3.86,3.86,0,0,1,1.75,1.08A5.06,5.06,0,0,1,439.43,99a8.69,8.69,0,0,1,.38,2.75,7.63,7.63,0,0,1-.36,2.48,5,5,0,0,1-1.24,2.05,4.24,4.24,0,0,1-1.65.94,7.28,7.28,0,0,1-2.08.24h-4.42V95.79Zm2.36,2v7.71h1.75a6.09,6.09,0,0,0,1.42-.11,2.15,2.15,0,0,0,.94-.48,2.45,2.45,0,0,0,.62-1.13,7.57,7.57,0,0,0,.23-2.13,6.93,6.93,0,0,0-.23-2.07,2.6,2.6,0,0,0-.67-1.13,2.22,2.22,0,0,0-1.08-.55,11.11,11.11,0,0,0-1.93-.11Zm24.36,9.68h-2.54l-1-2.65h-4.68l-1,2.65h-2.5l4.52-11.65h2.5l4.66,11.65Zm-4.31-4.62-1.62-4.31-1.57,4.31Zm10,4.62V95.79h8.62v2h-6.26v2.59h5.82v2h-5.82v3.15h6.49v2Zm15.33,0V95.79h4.95a8.39,8.39,0,0,1,2.71.32,2.64,2.64,0,0,1,1.36,1.11,3.37,3.37,0,0,1,.51,1.84,3.08,3.08,0,0,1-.77,2.16,3.67,3.67,0,0,1-2.29,1.08,5.55,5.55,0,0,1,1.25,1,12.81,12.81,0,0,1,1.33,1.89l1.42,2.27h-2.81l-1.69-2.54a15.73,15.73,0,0,0-1.24-1.71,1.76,1.76,0,0,0-.71-.48,3.85,3.85,0,0,0-1.19-.13h-.48v4.86Zm2.35-6.72H482a9.39,9.39,0,0,0,2.11-.14,1.28,1.28,0,0,0,.66-.5,1.49,1.49,0,0,0,.24-.87,1.4,1.4,0,0,0-.32-.95,1.42,1.42,0,0,0-.88-.46c-.2,0-.77,0-1.72,0H480.2v3Zm24.37,6.72H502l-1-2.65h-4.67l-1,2.65h-2.5l4.53-11.65h2.49l4.67,11.65Zm-4.31-4.62-1.62-4.31-1.58,4.31Zm10,4.62V95.79h2.36v4.59h4.59V95.79h2.36v11.65h-2.36v-5.09h-4.59v5.09Z"/><path class="cls-3" d="M534,95.79h4.66a12.88,12.88,0,0,1,2.06.12,2.84,2.84,0,0,1,1.22.48,2.9,2.9,0,0,1,.9,1,2.6,2.6,0,0,1,.35,1.36,2.7,2.7,0,0,1-.43,1.49,2.79,2.79,0,0,1-1.2,1,3.05,3.05,0,0,1,1.63,1.06,2.81,2.81,0,0,1,.57,1.76,3.59,3.59,0,0,1-.36,1.55,3.15,3.15,0,0,1-1,1.2,3.3,3.3,0,0,1-1.57.55c-.4,0-1.34.07-2.84.08h-4V95.79Zm2.36,1.94v2.68h1.54c.91,0,1.48,0,1.71,0a1.52,1.52,0,0,0,1-.41,1.22,1.22,0,0,0,.34-.91,1.24,1.24,0,0,0-.3-.87,1.29,1.29,0,0,0-.88-.41c-.24,0-.91,0-2,0Zm0,4.62v3.12h2.18a10.26,10.26,0,0,0,1.61-.07,1.48,1.48,0,0,0,.86-.46,1.67,1.67,0,0,0,.07-1.89,1.4,1.4,0,0,0-.73-.53,8,8,0,0,0-2.09-.17Zm24.54,5.09H558.4l-1-2.65h-4.68l-1,2.65h-2.5l4.52-11.65h2.5l4.66,11.65Zm-4.31-4.62L555,98.51l-1.57,4.31Zm10.23,4.62V95.79h2.28l4.79,7.81V95.79h2.18v11.65h-2.35L569,99.78v7.66Zm19,0V97.76h-3.45v-2h9.25v2h-3.44v9.68Zm12,0V95.79h8.62v2h-6.26v2.59H606v2h-5.82v3.15h6.49v2Zm15.51,0V95.79h2.28l4.8,7.81V95.79h2.18v11.65h-2.36l-4.72-7.66v7.66Z"/></svg>