<?xml version="1.0" encoding="utf-8"?>
<!-- Generator: Adobe Illustrator 25.0.0, SVG Export Plug-In . SVG Version: 6.00 Build 0)  -->
<svg version="1.1" id="Layer_1" xmlns="http://www.w3.org/2000/svg" xmlns:xlink="http://www.w3.org/1999/xlink" x="0px" y="0px"
	 viewBox="0 0 595.28 221.6" style="enable-background:new 0 0 595.28 221.6;" xml:space="preserve">
<style type="text/css">
	.st0{fill-rule:evenodd;clip-rule:evenodd;fill:#007294;}
	.st1{fill-rule:evenodd;clip-rule:evenodd;fill:#EC6300;}
</style>
<path class="st0" d="M204.72,0c6.94,4.75,14,11.96,14,18.92v122.72c0,6.87-6.48,16.6-12.39,20.48c20.82,0,41.65,0,62.47,0
	c40.42-1.67,64.94-16.26,67.87-46.86c2.06-21.46-9.28-38.15-37.14-47.56c13.9-5.29,21.37-16.8,22.05-32.69
	C322.76,7.69,290.96,0,270.96,0H204.72L204.72,0z M243.49,65.71V14.54h19.17c21.75,0,32,10.67,31.99,26.76
	c0,16.09-14.71,24.41-33.07,24.41H243.49L243.49,65.71z M263.93,146.5h-20.44V80.25h23.16c34.5,0,44.94,20.75,43.09,37.7
	C307.89,134.91,293.32,146.5,263.93,146.5L263.93,146.5z M391.68,0h-33.95c7.55,8.4,10.84,12.81,10.84,25.83v111.84
	c0,12.88-5.71,20.78-13.9,26.38h45.17c-6.71-4.09-13.93-12.13-13.93-26.68V38.57c22.82,30.48,45.64,60.96,68.46,91.45
	c12.94,16.93,27.94,31.27,45.43,42.51V25.24c0-14.75,5.95-20.37,13.9-25.24h-44.04c7.98,5.92,12.21,12.61,12.21,24.66v98.64
	L391.68,0L391.68,0z M538.71,164.05c9.14-6.06,13.78-13.17,13.78-22.41V24.5c0-13.85-4-16.98-11.84-24.5h52.13
	c-9,5.07-15.31,15.41-15.31,24.5v116.82c0,8.96,5.3,17.17,12.5,22.73H538.71z"/>
<path class="st1" d="M0,0h50.33c-2.63,4.51-4.62,14.65,0.47,37.43c4.52,20.25,17.6,41.37,31.25,58.06L64.9,109.57L0,28.03V0L0,0z
	 M73.49,0c-8.4,15.24,2.37,47.68,18.75,67.46c0,0,2.54-34.68,32.14-46.53c18.35-7.34,30.85-3.47,37.7,0.53V0H73.49L73.49,0z
	 M162.09,49.95v63.9c-20.13,7.64-48.37-12.23-55.46-35.81c-10.28-34.19,13.96-46.53,31.3-43.14
	C150.88,37.42,158.41,45.15,162.09,49.95L162.09,49.95z M162.09,124.34c-19.83,10.44-33.78,7.8-46.16,2.34
	c-5.78-2.55-16.01-11.05-26.75-22.89l-17.47,14.35l19.11,24.02c6.79,8.54,20.75,11.88,27.85,11.01l-10.89,8.94h54.3V124.34
	L162.09,124.34z M77.47,162.1H18.15l36.96-30.34c3.02,3.8,5.94,7.47,8.72,10.96C69.27,149.55,73.84,156.31,77.47,162.1L77.47,162.1z
	 M0.91,162.1l47.39-38.9C32.15,102.9,14.12,80.25,0,62.51v99.58H0.91z"/>
<path class="st0" d="M560.87,208.87L560.87,208.87l3.05-0.45c0.18,1.17,0.63,2.06,1.43,2.78c0.81,0.63,1.88,0.99,3.32,0.99
	c1.34,0,2.42-0.36,3.14-0.9c0.63-0.54,0.99-1.25,0.99-2.06c0-0.63-0.27-1.17-0.9-1.61c-0.45-0.27-1.52-0.63-3.14-0.99
	c-2.24-0.63-3.85-1.08-4.66-1.52c-0.9-0.45-1.61-0.99-2.06-1.7c-0.45-0.72-0.63-1.52-0.63-2.42c0-0.81,0.18-1.61,0.54-2.24
	c0.36-0.72,0.9-1.25,1.52-1.7c0.45-0.36,1.17-0.72,1.97-0.9c0.81-0.27,1.7-0.45,2.6-0.45c1.43,0,2.69,0.27,3.76,0.63
	c1.07,0.45,1.88,0.99,2.42,1.7c0.45,0.72,0.81,1.61,1.07,2.78l-3.05,0.45c-0.18-0.98-0.54-1.7-1.17-2.24
	c-0.63-0.45-1.61-0.72-2.78-0.72c-1.43,0-2.42,0.18-3.05,0.63c-0.63,0.54-0.9,1.08-0.9,1.7c0,0.36,0.18,0.72,0.36,1.07
	c0.27,0.27,0.63,0.54,1.16,0.81c0.36,0.09,1.26,0.36,2.78,0.81c2.15,0.54,3.67,0.99,4.48,1.43c0.9,0.36,1.61,0.9,2.06,1.61
	c0.45,0.63,0.72,1.52,0.72,2.6c0,0.98-0.27,1.97-0.9,2.87c-0.54,0.9-1.43,1.61-2.6,2.15c-1.08,0.45-2.33,0.72-3.76,0.72
	c-2.42,0-4.21-0.54-5.38-1.52C562.03,212.19,561.22,210.75,560.87,208.87L560.87,208.87z M586.49,203.76
	c2.06-0.27,3.58-0.63,4.66-0.98c0-0.45,0-0.72,0-0.81c0-1.25-0.27-2.15-0.9-2.69c-0.72-0.63-1.88-0.99-3.49-0.99
	c-0.09,0-0.18,0-0.27,0c-1.26,0-2.24,0.27-2.87,0.72c-0.72,0.54-1.25,1.43-1.52,2.69l-3.05-0.36c0.27-1.34,0.72-2.33,1.34-3.14
	c0.63-0.81,1.52-1.43,2.78-1.79c0.99-0.36,2.06-0.63,3.32-0.63c0.27-0.09,0.54-0.09,0.72-0.09c1.61,0,2.87,0.27,3.76,0.63
	c0.99,0.36,1.7,0.81,2.15,1.34c0.45,0.54,0.81,1.26,0.98,2.06c0.09,0.54,0.18,1.52,0.18,2.87v4.03c0,2.87,0,4.75,0.18,5.47
	c0.09,0.72,0.36,1.52,0.81,2.15h-3.23c-0.36-0.63-0.54-1.34-0.63-2.24c-1.16,0.99-2.24,1.7-3.32,2.06
	c-0.54,0.18-1.07,0.36-1.61,0.45c-0.54,0.09-1.16,0.18-1.79,0.18c-1.97,0-3.5-0.54-4.57-1.43c-1.08-0.98-1.61-2.24-1.61-3.76
	c0-0.9,0.27-1.7,0.63-2.42c0.45-0.72,0.9-1.35,1.61-1.79c0.63-0.45,1.34-0.81,2.15-0.98c0.63-0.18,1.52-0.36,2.78-0.45
	C585.96,203.76,586.23,203.76,586.49,203.76L586.49,203.76z M586.49,212.19c0.81-0.09,1.52-0.36,2.15-0.72
	c0.9-0.45,1.61-1.16,2.06-2.06c0.27-0.72,0.45-1.79,0.45-3.14v-1.07c-1.07,0.45-2.6,0.81-4.66,1.07c-0.09,0-0.27,0.09-0.36,0.09
	c-1.25,0.18-2.15,0.36-2.69,0.63c-0.54,0.18-0.9,0.54-1.17,0.99c-0.36,0.45-0.45,0.9-0.45,1.43c0,0.81,0.27,1.52,0.9,2.06
	c0.63,0.54,1.52,0.81,2.78,0.81C585.87,212.28,586.14,212.28,586.49,212.19L586.49,212.19z M0.98,214.25L0.98,214.25v-25H6
	l5.91,17.74c0.54,1.61,0.99,2.87,1.17,3.67c0.36-0.9,0.81-2.24,1.34-4.03l6-17.39h4.48v25h-3.23v-20.88l-7.26,20.88h-2.96
	L4.2,193.01v21.24H0.98L0.98,214.25z M49.19,214.25L49.19,214.25v-25h3.14v25H49.19L49.19,214.25z M37.18,203.49h5.11
	c-0.18-1.52-0.54-2.69-1.16-3.49c-0.99-1.17-2.24-1.7-3.76-1.7c-0.09,0-0.09,0-0.18,0c-1.34,0-2.51,0.45-3.41,1.35
	c-0.99,0.98-1.52,2.24-1.61,3.85H37.18L37.18,203.49z M37.18,212.19c0.09,0,0.18,0,0.27,0c1.17,0,2.06-0.36,2.87-0.9
	c0.81-0.63,1.43-1.52,1.97-2.87l3.14,0.36c-0.54,1.88-1.43,3.32-2.78,4.39c-1.34,0.99-3.14,1.52-5.2,1.52c-0.09,0-0.18,0-0.27,0
	c-2.51-0.09-4.57-0.9-6-2.51c-1.61-1.61-2.33-3.85-2.33-6.81c0-3.05,0.72-5.47,2.33-7.08c1.52-1.7,3.59-2.51,6-2.6
	c0.09,0,0.09,0,0.09,0c2.42,0,4.39,0.9,5.91,2.51c1.61,1.61,2.33,3.94,2.33,6.99c0,0.18,0,0.45,0,0.81h-8.33h-5.2
	c0.09,1.97,0.72,3.5,1.7,4.57C34.67,211.56,35.84,212.1,37.18,212.19L37.18,212.19z M76.34,221.24L76.34,221.24l-0.36-2.87
	c0.72,0.18,1.26,0.27,1.79,0.27c0.63,0,1.16-0.09,1.61-0.36c0.45-0.18,0.72-0.54,0.99-0.99c0.27-0.27,0.54-0.99,0.99-2.24
	c0-0.18,0.09-0.45,0.27-0.72l-6.9-18.19h3.31l3.76,10.48c0.54,1.34,0.98,2.78,1.34,4.21c0.36-1.43,0.72-2.78,1.25-4.12l3.85-10.57
	h3.05l-6.9,18.46c-0.72,1.97-1.25,3.32-1.7,4.12c-0.54,0.99-1.16,1.7-1.88,2.15c-0.72,0.54-1.52,0.72-2.51,0.72
	C77.68,221.6,77.06,221.51,76.34,221.24L76.34,221.24z M63.97,203.76c2.06-0.27,3.58-0.63,4.66-0.98c0-0.45,0-0.72,0-0.81
	c0-1.25-0.27-2.15-0.9-2.69c-0.81-0.63-1.97-0.99-3.5-0.99c-0.09,0-0.18,0-0.27,0c-1.34,0-2.24,0.27-2.96,0.72
	c-0.63,0.54-1.17,1.43-1.52,2.69l-2.96-0.36c0.27-1.34,0.72-2.33,1.34-3.14c0.63-0.81,1.52-1.43,2.69-1.79
	c0.99-0.36,2.15-0.63,3.41-0.63c0.18-0.09,0.45-0.09,0.72-0.09c1.52,0,2.78,0.27,3.76,0.63c0.98,0.36,1.7,0.81,2.15,1.34
	c0.45,0.54,0.81,1.26,0.99,2.06c0.09,0.54,0.09,1.52,0.09,2.87v4.03c0,2.87,0.09,4.75,0.27,5.47c0.09,0.72,0.36,1.52,0.72,2.15
	h-3.23c-0.27-0.63-0.45-1.34-0.54-2.24c-1.17,0.99-2.24,1.7-3.32,2.06c-0.54,0.18-1.07,0.36-1.61,0.45
	c-0.63,0.09-1.17,0.18-1.79,0.18c-1.97,0-3.5-0.54-4.57-1.43c-1.07-0.98-1.61-2.24-1.61-3.76c0-0.9,0.18-1.7,0.63-2.42
	c0.36-0.72,0.9-1.35,1.52-1.79c0.72-0.45,1.43-0.81,2.24-0.98c0.63-0.18,1.52-0.36,2.78-0.45
	C63.44,203.76,63.71,203.76,63.97,203.76L63.97,203.76z M63.97,212.19c0.72-0.09,1.43-0.36,2.15-0.72c0.9-0.45,1.52-1.16,1.97-2.06
	c0.36-0.72,0.54-1.79,0.54-3.14v-1.07c-1.08,0.45-2.6,0.81-4.66,1.07c-0.18,0-0.27,0.09-0.36,0.09c-1.26,0.18-2.15,0.36-2.69,0.63
	c-0.54,0.18-0.99,0.54-1.25,0.99c-0.27,0.45-0.36,0.9-0.36,1.43c0,0.81,0.27,1.52,0.9,2.06c0.63,0.54,1.52,0.81,2.69,0.81
	C63.26,212.28,63.62,212.28,63.97,212.19L63.97,212.19z M150.63,214.25L150.63,214.25v-25h3.4l13.17,19.63v-19.63h3.14v25h-3.41
	l-13.08-19.63v19.63H150.63L150.63,214.25z M132.8,214.25L132.8,214.25v-18.1h3.14v18.1H132.8L132.8,214.25z M132.8,192.83
	L132.8,192.83v-3.58h3.14v3.58H132.8L132.8,192.83z M113.35,214.25L113.35,214.25v-18.1h2.78v2.6c1.34-1.97,3.32-3.05,5.82-3.05
	c1.08,0,2.06,0.27,2.96,0.63c0.9,0.36,1.61,0.9,2.06,1.52c0.45,0.63,0.81,1.43,0.99,2.33c0.09,0.54,0.18,1.52,0.18,2.96v11.11H125
	v-11.02c0-1.26-0.09-2.15-0.36-2.78c-0.18-0.63-0.63-1.16-1.25-1.52c-0.63-0.36-1.25-0.54-2.15-0.54c-1.25,0-2.42,0.45-3.32,1.26
	c-0.99,0.81-1.43,2.42-1.43,4.75v9.86H113.35L113.35,214.25z M100.89,203.76c2.06-0.27,3.58-0.63,4.66-0.98c0-0.45,0-0.72,0-0.81
	c0-1.25-0.27-2.15-0.9-2.69c-0.81-0.63-1.97-0.99-3.49-0.99c-0.09,0-0.18,0-0.27,0c-1.34,0-2.33,0.27-2.96,0.72
	c-0.63,0.54-1.17,1.43-1.52,2.69l-2.96-0.36c0.27-1.34,0.72-2.33,1.34-3.14c0.63-0.81,1.52-1.43,2.69-1.79
	c0.99-0.36,2.15-0.63,3.41-0.63c0.18-0.09,0.45-0.09,0.72-0.09c1.52,0,2.78,0.27,3.76,0.63c0.99,0.36,1.7,0.81,2.15,1.34
	c0.45,0.54,0.72,1.26,0.98,2.06c0.09,0.54,0.09,1.52,0.09,2.87v4.03c0,2.87,0.09,4.75,0.18,5.47c0.18,0.72,0.45,1.52,0.81,2.15
	h-3.23c-0.27-0.63-0.54-1.34-0.63-2.24c-1.08,0.99-2.15,1.7-3.23,2.06c-0.54,0.18-1.07,0.36-1.61,0.45
	c-0.63,0.09-1.16,0.18-1.79,0.18c-1.97,0-3.5-0.54-4.57-1.43c-1.07-0.98-1.61-2.24-1.61-3.76c0-0.9,0.18-1.7,0.63-2.42
	c0.36-0.72,0.9-1.35,1.52-1.79c0.72-0.45,1.43-0.81,2.24-0.98c0.63-0.18,1.52-0.36,2.69-0.45
	C100.36,203.76,100.63,203.76,100.89,203.76L100.89,203.76z M100.89,212.19c0.72-0.09,1.43-0.36,2.06-0.72
	c0.98-0.45,1.61-1.16,2.06-2.06c0.36-0.72,0.54-1.79,0.54-3.14v-1.07c-1.08,0.45-2.69,0.81-4.66,1.07c-0.18,0-0.27,0.09-0.36,0.09
	c-1.25,0.18-2.15,0.36-2.69,0.63c-0.54,0.18-0.98,0.54-1.25,0.99c-0.27,0.45-0.45,0.9-0.45,1.43c0,0.81,0.36,1.52,0.98,2.06
	c0.63,0.54,1.52,0.81,2.69,0.81C100.18,212.28,100.54,212.28,100.89,212.19L100.89,212.19z M182.89,203.49H188
	c-0.18-1.52-0.54-2.69-1.17-3.49c-0.99-1.17-2.24-1.7-3.85-1.7c0,0,0,0-0.09,0c-1.34,0-2.51,0.45-3.4,1.35
	c-0.98,0.98-1.52,2.24-1.61,3.85H182.89L182.89,203.49z M182.89,212.19c0.09,0,0.18,0,0.27,0c1.16,0,2.06-0.36,2.87-0.9
	c0.81-0.63,1.43-1.52,1.88-2.87l3.23,0.36c-0.54,1.88-1.43,3.32-2.78,4.39c-1.34,0.99-3.14,1.52-5.2,1.52c-0.09,0-0.18,0-0.27,0
	c-2.51-0.09-4.57-0.9-6.09-2.51c-1.52-1.61-2.33-3.85-2.33-6.81c0-3.05,0.81-5.47,2.42-7.08c1.52-1.7,3.58-2.51,6-2.6h0.09
	c2.42,0,4.39,0.9,5.91,2.51c1.52,1.61,2.33,3.94,2.33,6.99c0,0.18,0,0.45,0,0.81h-8.33h-5.2c0.09,1.97,0.63,3.5,1.7,4.57
	C180.29,211.56,181.54,212.1,182.89,212.19L182.89,212.19z M201.89,211.74c1.43,0,2.6-0.54,3.58-1.61c0.99-1.07,1.43-2.78,1.43-5.11
	c0-2.24-0.54-3.94-1.52-5.02c-0.9-1.17-2.06-1.7-3.49-1.7c-1.43,0-2.51,0.54-3.5,1.61c-0.98,1.17-1.43,2.78-1.43,5.02
	c0,2.33,0.45,4.03,1.43,5.2C199.29,211.2,200.45,211.74,201.89,211.74L201.89,211.74z M201.89,219.09c1.25-0.09,2.24-0.36,2.96-0.9
	c0.81-0.54,1.25-1.34,1.61-2.33c0.09-0.63,0.18-1.97,0.18-3.94c-1.25,1.52-2.87,2.24-4.75,2.33c-0.09,0-0.18,0-0.27,0
	c-2.51,0-4.39-0.9-5.82-2.69c-1.34-1.79-1.97-3.94-1.97-6.45c0-1.7,0.27-3.32,0.9-4.75c0.63-1.52,1.52-2.6,2.69-3.41
	c1.25-0.81,2.6-1.25,4.21-1.25c0.09,0,0.18,0,0.27,0c2.06,0.09,3.67,0.98,5.02,2.6v-2.15h2.87v15.68c0,2.78-0.27,4.84-0.9,6
	c-0.54,1.16-1.43,2.06-2.69,2.78c-1.16,0.63-2.6,0.99-4.3,0.99c-0.09,0-0.18,0-0.36,0c-2.15,0-3.85-0.45-5.2-1.43
	c-1.34-0.99-1.97-2.42-1.97-4.39l3.05,0.45c0.09,0.89,0.45,1.61,0.98,1.97c0.81,0.63,1.88,0.9,3.14,0.9
	C201.71,219.09,201.8,219.09,201.89,219.09L201.89,219.09z M272.95,214.25L272.95,214.25v-25h3.32v12.46l12.37-12.46h4.48
	l-10.48,10.13l10.93,14.87h-4.3l-8.96-12.63l-4.03,4.03v8.6H272.95L272.95,214.25z M254.04,214.25L254.04,214.25v-3.49h3.49v3.49
	c0,1.34-0.18,2.33-0.72,3.14c-0.45,0.81-1.16,1.43-2.15,1.79l-0.81-1.25c0.63-0.27,1.07-0.72,1.43-1.26
	c0.27-0.54,0.45-1.34,0.45-2.42H254.04L254.04,214.25z M245.53,214.25L245.53,214.25v-18.1h3.05v18.1H245.53L245.53,214.25z
	 M245.53,192.83L245.53,192.83v-3.58h3.05v3.58H245.53L245.53,192.83z M233.79,214.25L233.79,214.25v-18.1h2.78v2.78
	c0.72-1.34,1.34-2.15,1.97-2.6c0.54-0.36,1.25-0.63,1.97-0.63c0.99,0,2.06,0.36,3.14,0.98l-1.07,2.87
	c-0.72-0.45-1.52-0.63-2.24-0.63c-0.63,0-1.25,0.18-1.79,0.63c-0.54,0.36-0.9,0.9-1.17,1.61c-0.36,1.16-0.54,2.33-0.54,3.58v9.5
	H233.79L233.79,214.25z M221.78,203.49h5.02c-0.09-1.52-0.45-2.69-1.07-3.49c-0.99-1.17-2.33-1.7-3.85-1.7h-0.09
	c-1.34,0-2.51,0.45-3.49,1.35c-0.9,0.98-1.43,2.24-1.52,3.85H221.78L221.78,203.49z M221.78,212.19c0.09,0,0.18,0,0.27,0
	c1.07,0,2.06-0.36,2.87-0.9c0.81-0.63,1.43-1.52,1.88-2.87l3.14,0.36c-0.45,1.88-1.35,3.32-2.78,4.39
	c-1.34,0.99-3.05,1.52-5.11,1.52c-0.09,0-0.18,0-0.27,0c-2.51-0.09-4.57-0.9-6.09-2.51c-1.52-1.61-2.33-3.85-2.33-6.81
	c0-3.05,0.81-5.47,2.42-7.08c1.52-1.7,3.49-2.51,6-2.6c0,0,0,0,0.09,0c2.42,0,4.39,0.9,5.91,2.51c1.52,1.61,2.33,3.94,2.33,6.99
	c0,0.18,0,0.45-0.09,0.81h-8.24h-5.2c0.09,1.97,0.63,3.5,1.7,4.57C219.18,211.56,220.35,212.1,221.78,212.19L221.78,212.19z
	 M303.23,203.49h5.11c-0.18-1.52-0.54-2.69-1.16-3.49c-0.99-1.17-2.24-1.7-3.85-1.7c0,0,0,0-0.09,0c-1.34,0-2.51,0.45-3.4,1.35
	c-0.98,0.98-1.52,2.24-1.61,3.85H303.23L303.23,203.49z M303.23,212.19c0.09,0,0.18,0,0.27,0c1.08,0,2.06-0.36,2.87-0.9
	c0.81-0.63,1.43-1.52,1.88-2.87l3.23,0.36c-0.54,1.88-1.43,3.32-2.78,4.39c-1.43,0.99-3.14,1.52-5.2,1.52c-0.09,0-0.18,0-0.27,0
	c-2.51-0.09-4.57-0.9-6-2.51c-1.52-1.61-2.33-3.85-2.33-6.81c0-3.05,0.81-5.47,2.42-7.08c1.43-1.7,3.5-2.51,5.91-2.6h0.09
	c2.42,0,4.39,0.9,5.91,2.51c1.52,1.61,2.33,3.94,2.33,6.99c0,0.18,0,0.45,0,0.81h-8.33h-5.11c0,1.97,0.54,3.5,1.61,4.57
	C300.64,211.56,301.8,212.1,303.23,212.19L303.23,212.19z M322.95,195.79c0.18-0.09,0.27-0.09,0.36-0.09c1.17,0,2.15,0.27,3.23,0.72
	c0.98,0.45,1.79,1.08,2.42,1.88c0.63,0.81,1.17,1.79,1.52,2.96c0.36,1.17,0.54,2.42,0.54,3.67c0,3.14-0.81,5.56-2.33,7.17
	c-1.52,1.7-3.4,2.6-5.55,2.6c0,0-0.09,0-0.18,0c-1.97-0.09-3.59-0.98-4.84-2.69v2.24h-2.78v-25h3.05v8.96
	C319.55,196.68,321.16,195.79,322.95,195.79L322.95,195.79z M322.95,212.19c1.34-0.09,2.51-0.63,3.41-1.79
	c0.98-1.17,1.52-2.87,1.52-5.2c0-2.33-0.45-4.12-1.43-5.2c-0.9-1.17-2.06-1.7-3.4-1.7c0,0,0,0-0.09,0c-1.26,0-2.42,0.54-3.4,1.7
	c-0.99,1.17-1.43,2.87-1.43,5.11c0,2.15,0.27,3.67,0.9,4.66C319.99,211.38,321.25,212.19,322.95,212.19L322.95,212.19z
	 M354.22,214.25L354.22,214.25v-18.1h2.69v2.6c1.34-1.97,3.32-3.05,5.83-3.05c1.07,0,2.06,0.27,2.96,0.63
	c0.98,0.36,1.61,0.9,2.06,1.52c0.45,0.63,0.81,1.43,0.98,2.33c0.09,0.54,0.18,1.52,0.18,2.96v11.11h-3.05v-11.02
	c0-1.26-0.18-2.15-0.36-2.78c-0.27-0.63-0.72-1.16-1.34-1.52c-0.54-0.36-1.25-0.54-2.15-0.54c-1.26,0-2.42,0.45-3.32,1.26
	c-0.98,0.81-1.43,2.42-1.43,4.75v9.86H354.22L354.22,214.25z M341.68,203.76c2.06-0.27,3.58-0.63,4.66-0.98c0-0.45,0-0.72,0-0.81
	c0-1.25-0.27-2.15-0.9-2.69c-0.81-0.63-1.97-0.99-3.5-0.99c-0.09,0-0.18,0-0.27,0c-1.34,0-2.24,0.27-2.96,0.72
	c-0.63,0.54-1.17,1.43-1.52,2.69l-2.96-0.36c0.27-1.34,0.72-2.33,1.34-3.14c0.63-0.81,1.52-1.43,2.69-1.79
	c0.99-0.36,2.15-0.63,3.41-0.63c0.18-0.09,0.45-0.09,0.72-0.09c1.52,0,2.78,0.27,3.76,0.63c0.99,0.36,1.7,0.81,2.15,1.34
	c0.45,0.54,0.81,1.26,0.99,2.06c0.09,0.54,0.09,1.52,0.09,2.87v4.03c0,2.87,0.09,4.75,0.27,5.47c0.09,0.72,0.36,1.52,0.72,2.15
	h-3.23c-0.27-0.63-0.45-1.34-0.54-2.24c-1.17,0.99-2.24,1.7-3.32,2.06c-0.54,0.18-1.07,0.36-1.61,0.45
	c-0.63,0.09-1.17,0.18-1.79,0.18c-1.97,0-3.5-0.54-4.57-1.43c-1.07-0.98-1.61-2.24-1.61-3.76c0-0.9,0.18-1.7,0.63-2.42
	c0.36-0.72,0.9-1.35,1.52-1.79c0.72-0.45,1.43-0.81,2.24-0.98c0.63-0.18,1.52-0.36,2.78-0.45
	C341.14,203.76,341.41,203.76,341.68,203.76L341.68,203.76z M341.68,212.19c0.72-0.09,1.43-0.36,2.06-0.72
	c0.99-0.45,1.61-1.16,2.06-2.06c0.36-0.72,0.54-1.79,0.54-3.14v-1.07c-1.08,0.45-2.69,0.81-4.66,1.07c-0.18,0-0.27,0.09-0.36,0.09
	c-1.26,0.18-2.15,0.36-2.69,0.63c-0.54,0.18-0.99,0.54-1.25,0.99c-0.27,0.45-0.36,0.9-0.36,1.43c0,0.81,0.27,1.52,0.9,2.06
	c0.63,0.54,1.52,0.81,2.69,0.81C340.96,212.28,341.32,212.28,341.68,212.19L341.68,212.19z M380.57,211.74c1.43,0,2.6-0.54,3.5-1.61
	c0.99-1.07,1.43-2.78,1.43-5.11c0-2.24-0.45-3.94-1.43-5.02c-0.99-1.17-2.15-1.7-3.5-1.7c0,0,0,0-0.09,0c-1.34,0-2.51,0.54-3.5,1.61
	c-0.9,1.17-1.43,2.78-1.43,5.02c0,2.33,0.54,4.03,1.43,5.2C377.97,211.2,379.14,211.74,380.57,211.74L380.57,211.74z M380.57,219.09
	c1.26-0.09,2.24-0.36,2.96-0.9c0.72-0.54,1.25-1.34,1.52-2.33c0.18-0.63,0.27-1.97,0.27-3.94c-1.34,1.52-2.87,2.24-4.75,2.33
	c-0.09,0-0.18,0-0.27,0c-2.51,0-4.48-0.9-5.82-2.69c-1.34-1.79-2.06-3.94-2.06-6.45c0-1.7,0.36-3.32,0.99-4.75
	c0.63-1.52,1.52-2.6,2.69-3.41c1.16-0.81,2.6-1.25,4.21-1.25c0.09,0,0.18,0,0.27,0c1.97,0.09,3.67,0.98,5.02,2.6v-2.15h2.87v15.68
	c0,2.78-0.36,4.84-0.9,6c-0.63,1.16-1.52,2.06-2.78,2.78c-1.16,0.63-2.51,0.99-4.21,0.99c-0.09,0-0.27,0-0.36,0
	c-2.15,0-3.94-0.45-5.2-1.43c-1.34-0.99-1.97-2.42-1.97-4.39l2.96,0.45c0.18,0.89,0.54,1.61,1.08,1.97c0.81,0.63,1.79,0.9,3.14,0.9
	C380.3,219.09,380.48,219.09,380.57,219.09L380.57,219.09z M400.01,211.74c1.43,0,2.6-0.54,3.49-1.61c0.99-1.07,1.43-2.78,1.43-5.11
	c0-2.24-0.45-3.94-1.43-5.02c-0.98-1.17-2.15-1.7-3.49-1.7h-0.09c-1.34,0-2.51,0.54-3.49,1.61c-0.9,1.17-1.43,2.78-1.43,5.02
	c0,2.33,0.54,4.03,1.43,5.2C397.42,211.2,398.58,211.74,400.01,211.74L400.01,211.74z M400.01,219.09c1.25-0.09,2.24-0.36,2.96-0.9
	c0.72-0.54,1.25-1.34,1.52-2.33c0.18-0.63,0.27-1.97,0.27-3.94c-1.34,1.52-2.87,2.24-4.75,2.33c-0.09,0-0.18,0-0.27,0
	c-2.51,0-4.48-0.9-5.82-2.69c-1.35-1.79-2.06-3.94-2.06-6.45c0-1.7,0.36-3.32,0.98-4.75c0.63-1.52,1.52-2.6,2.69-3.41
	c1.17-0.81,2.6-1.25,4.21-1.25c0.09,0,0.18,0,0.27,0c1.97,0.09,3.67,0.98,5.02,2.6v-2.15h2.78v15.68c0,2.78-0.27,4.84-0.81,6
	c-0.63,1.16-1.52,2.06-2.78,2.78c-1.17,0.63-2.6,0.99-4.21,0.99c-0.09,0-0.27,0-0.36,0c-2.15,0-3.94-0.45-5.2-1.43
	c-1.34-0.99-2.06-2.42-1.97-4.39l2.96,0.45c0.18,0.89,0.54,1.61,1.07,1.97c0.72,0.63,1.79,0.9,3.14,0.9
	C399.75,219.09,399.92,219.09,400.01,219.09L400.01,219.09z M419.37,203.76c2.06-0.27,3.67-0.63,4.66-0.98c0-0.45,0-0.72,0-0.81
	c0-1.25-0.27-2.15-0.81-2.69c-0.81-0.63-1.97-0.99-3.5-0.99c-0.09,0-0.27,0-0.36,0c-1.26,0-2.24,0.27-2.87,0.72
	c-0.72,0.54-1.17,1.43-1.52,2.69l-3.05-0.36c0.36-1.34,0.81-2.33,1.34-3.14c0.63-0.81,1.61-1.43,2.78-1.79
	c0.99-0.36,2.06-0.63,3.32-0.63c0.27-0.09,0.54-0.09,0.81-0.09c1.52,0,2.78,0.27,3.76,0.63c0.98,0.36,1.61,0.81,2.15,1.34
	c0.45,0.54,0.72,1.26,0.9,2.06c0.09,0.54,0.18,1.52,0.18,2.87v4.03c0,2.87,0.09,4.75,0.18,5.47c0.18,0.72,0.36,1.52,0.81,2.15h-3.23
	c-0.36-0.63-0.54-1.34-0.63-2.24c-1.17,0.99-2.24,1.7-3.32,2.06c-0.45,0.18-1.08,0.36-1.61,0.45c-0.54,0.09-1.17,0.18-1.7,0.18
	c-2.06,0-3.58-0.54-4.66-1.43c-0.99-0.98-1.52-2.24-1.52-3.76c0-0.9,0.18-1.7,0.54-2.42c0.45-0.72,0.99-1.35,1.61-1.79
	c0.63-0.45,1.43-0.81,2.24-0.98c0.54-0.18,1.52-0.36,2.69-0.45C418.83,203.76,419.1,203.76,419.37,203.76L419.37,203.76z
	 M419.37,212.19c0.81-0.09,1.52-0.36,2.15-0.72c0.9-0.45,1.61-1.16,2.06-2.06c0.27-0.72,0.45-1.79,0.45-3.14v-1.07
	c-1.07,0.45-2.6,0.81-4.66,1.07c-0.09,0-0.18,0.09-0.36,0.09c-1.25,0.18-2.15,0.36-2.69,0.63c-0.45,0.18-0.9,0.54-1.17,0.99
	c-0.27,0.45-0.45,0.9-0.45,1.43c0,0.81,0.36,1.52,0.99,2.06c0.54,0.54,1.52,0.81,2.69,0.81
	C418.74,212.28,419.1,212.28,419.37,212.19L419.37,212.19z M451.36,214.25L451.36,214.25v-18.1h2.78v2.6
	c1.34-1.97,3.23-3.05,5.74-3.05c1.07,0,2.15,0.27,3.05,0.63c0.9,0.36,1.61,0.9,2.06,1.52c0.45,0.63,0.72,1.43,0.9,2.33
	c0.18,0.54,0.18,1.52,0.18,2.96v11.11h-3.05v-11.02c0-1.26-0.09-2.15-0.36-2.78c-0.27-0.63-0.63-1.16-1.25-1.52
	c-0.63-0.36-1.34-0.54-2.15-0.54c-1.34,0-2.42,0.45-3.4,1.26c-0.98,0.81-1.43,2.42-1.43,4.75v9.86H451.36L451.36,214.25z
	 M438.82,203.76c2.06-0.27,3.67-0.63,4.66-0.98c0-0.45,0-0.72,0-0.81c0-1.25-0.27-2.15-0.81-2.69c-0.81-0.63-1.97-0.99-3.49-0.99
	c-0.18,0-0.27,0-0.36,0c-1.25,0-2.24,0.27-2.87,0.72c-0.72,0.54-1.16,1.43-1.52,2.69l-3.05-0.36c0.27-1.34,0.72-2.33,1.34-3.14
	c0.63-0.81,1.61-1.43,2.78-1.79c0.98-0.36,2.06-0.63,3.31-0.63c0.27-0.09,0.54-0.09,0.81-0.09c1.52,0,2.78,0.27,3.76,0.63
	c0.9,0.36,1.61,0.81,2.06,1.34c0.54,0.54,0.81,1.26,0.99,2.06c0.09,0.54,0.18,1.52,0.18,2.87v4.03c0,2.87,0.09,4.75,0.18,5.47
	c0.09,0.72,0.36,1.52,0.81,2.15h-3.23c-0.36-0.63-0.54-1.34-0.63-2.24c-1.16,0.99-2.24,1.7-3.32,2.06
	c-0.54,0.18-1.07,0.36-1.61,0.45c-0.54,0.09-1.16,0.18-1.7,0.18c-2.06,0-3.59-0.54-4.66-1.43c-1.08-0.98-1.61-2.24-1.61-3.76
	c0-0.9,0.27-1.7,0.63-2.42c0.45-0.72,0.99-1.35,1.61-1.79c0.63-0.45,1.34-0.81,2.24-0.98c0.54-0.18,1.43-0.36,2.69-0.45
	C438.28,203.76,438.55,203.76,438.82,203.76L438.82,203.76z M438.82,212.19c0.81-0.09,1.52-0.36,2.15-0.72
	c0.9-0.45,1.61-1.16,2.06-2.06c0.27-0.72,0.45-1.79,0.45-3.14v-1.07c-1.08,0.45-2.6,0.81-4.66,1.07c-0.09,0-0.18,0.09-0.36,0.09
	c-1.26,0.18-2.15,0.36-2.69,0.63c-0.54,0.18-0.9,0.54-1.17,0.99c-0.27,0.45-0.45,0.9-0.45,1.43c0,0.81,0.36,1.52,0.9,2.06
	c0.63,0.54,1.52,0.81,2.78,0.81C438.19,212.28,438.46,212.28,438.82,212.19L438.82,212.19z M489.63,189.25h0.54
	c1.88,0,3.4,0.27,4.57,0.81c1.17,0.45,2.06,1.25,2.69,2.33c0.72,0.99,0.99,2.15,0.99,3.32c0,0.98-0.27,2.06-0.81,2.96
	c-0.63,0.99-1.52,1.7-2.69,2.33c1.52,0.45,2.69,1.16,3.49,2.24c0.81,1.08,1.26,2.33,1.26,3.76c0,1.17-0.27,2.33-0.72,3.32
	c-0.54,0.98-1.16,1.79-1.88,2.33c-0.72,0.54-1.61,0.9-2.69,1.26c-1.17,0.27-2.51,0.36-4.12,0.36h-0.63h-8.87v-25H489.63
	L489.63,189.25z M489.63,199.73c1.34,0,2.42-0.09,3.05-0.27c0.81-0.27,1.43-0.63,1.88-1.25c0.45-0.54,0.63-1.26,0.63-2.15
	c0-0.81-0.18-1.61-0.63-2.24c-0.36-0.63-0.99-0.99-1.7-1.26c-0.63-0.18-1.7-0.36-3.23-0.36c-0.18,0-0.36,0-0.54,0h-5.02v7.53h5.38
	C489.54,199.73,489.54,199.73,489.63,199.73L489.63,199.73z M489.63,211.29h0.63c1.07,0,1.88,0,2.33-0.09
	c0.72-0.18,1.34-0.36,1.88-0.72c0.54-0.27,0.9-0.72,1.26-1.34c0.36-0.63,0.54-1.35,0.54-2.15c0-0.9-0.27-1.7-0.72-2.42
	c-0.54-0.72-1.17-1.17-2.06-1.43c-0.81-0.27-2.06-0.45-3.58-0.45h-0.27h-5.56v8.6H489.63L489.63,211.29z M523.23,214.25
	L523.23,214.25v-18.1h2.78v2.6c1.34-1.97,3.23-3.05,5.74-3.05c1.16,0,2.15,0.27,3.05,0.63c0.9,0.36,1.61,0.9,2.06,1.52
	c0.45,0.63,0.81,1.43,0.99,2.33c0.09,0.54,0.18,1.52,0.18,2.96v11.11h-3.14v-11.02c0-1.26-0.09-2.15-0.36-2.78
	c-0.18-0.63-0.63-1.16-1.25-1.52c-0.63-0.36-1.34-0.54-2.15-0.54c-1.25,0-2.42,0.45-3.41,1.26c-0.9,0.81-1.43,2.42-1.43,4.75v9.86
	H523.23L523.23,214.25z M510.68,203.76c2.06-0.27,3.67-0.63,4.66-0.98c0.09-0.45,0.09-0.72,0.09-0.81c0-1.25-0.36-2.15-0.9-2.69
	c-0.81-0.63-1.97-0.99-3.49-0.99c-0.09,0-0.27,0-0.36,0c-1.25,0-2.24,0.27-2.87,0.72c-0.72,0.54-1.17,1.43-1.52,2.69l-2.96-0.36
	c0.27-1.34,0.72-2.33,1.35-3.14c0.63-0.81,1.52-1.43,2.69-1.79c0.98-0.36,2.06-0.63,3.32-0.63c0.27-0.09,0.54-0.09,0.81-0.09
	c1.52,0,2.78,0.27,3.76,0.63c0.99,0.36,1.7,0.81,2.15,1.34c0.45,0.54,0.72,1.26,0.9,2.06c0.09,0.54,0.18,1.52,0.18,2.87v4.03
	c0,2.87,0.09,4.75,0.18,5.47c0.18,0.72,0.45,1.52,0.81,2.15h-3.23c-0.27-0.63-0.54-1.34-0.63-2.24c-1.08,0.99-2.24,1.7-3.23,2.06
	c-0.54,0.18-1.08,0.36-1.7,0.45c-0.54,0.09-1.17,0.18-1.7,0.18c-1.97,0-3.5-0.54-4.57-1.43c-1.08-0.98-1.61-2.24-1.61-3.76
	c0-0.9,0.18-1.7,0.54-2.42c0.45-0.72,0.99-1.35,1.61-1.79c0.63-0.45,1.43-0.81,2.24-0.98c0.54-0.18,1.52-0.36,2.69-0.45
	C510.15,203.76,510.41,203.76,510.68,203.76L510.68,203.76z M510.68,212.19c0.81-0.09,1.52-0.36,2.15-0.72
	c0.9-0.45,1.61-1.16,2.06-2.06c0.36-0.72,0.45-1.79,0.45-3.14v-1.07c-0.99,0.45-2.6,0.81-4.66,1.07c-0.09,0-0.18,0.09-0.36,0.09
	c-1.26,0.18-2.15,0.36-2.6,0.63c-0.54,0.18-0.98,0.54-1.25,0.99c-0.27,0.45-0.45,0.9-0.45,1.43c0,0.81,0.36,1.52,0.98,2.06
	c0.54,0.54,1.52,0.81,2.69,0.81C510.06,212.28,510.41,212.28,510.68,212.19L510.68,212.19z M549.66,211.74
	c1.34,0,2.6-0.54,3.49-1.61c0.99-1.07,1.43-2.78,1.43-5.11c0-2.24-0.45-3.94-1.43-5.02c-0.98-1.17-2.15-1.7-3.49-1.7
	c-0.09,0-0.09,0-0.09,0c-1.34,0-2.51,0.54-3.49,1.61c-0.99,1.17-1.43,2.78-1.43,5.02c0,2.33,0.45,4.03,1.43,5.2
	C547.07,211.2,548.23,211.74,549.66,211.74L549.66,211.74z M549.66,219.09c1.25-0.09,2.15-0.36,2.87-0.9
	c0.81-0.54,1.34-1.34,1.61-2.33c0.18-0.63,0.18-1.97,0.18-3.94c-1.25,1.52-2.78,2.24-4.66,2.33c-0.09,0-0.27,0-0.36,0
	c-2.51,0-4.39-0.9-5.73-2.69c-1.35-1.79-2.06-3.94-2.06-6.45c0-1.7,0.27-3.32,0.9-4.75c0.63-1.52,1.61-2.6,2.78-3.41
	c1.17-0.81,2.6-1.25,4.21-1.25c0.09,0,0.18,0,0.27,0c1.97,0.09,3.67,0.98,5.02,2.6v-2.15h2.78v15.68c0,2.78-0.27,4.84-0.81,6
	c-0.63,1.16-1.52,2.06-2.78,2.78c-1.17,0.63-2.6,0.99-4.21,0.99c-0.18,0-0.27,0-0.36,0c-2.15,0-3.94-0.45-5.29-1.43
	c-1.34-0.99-1.97-2.42-1.88-4.39l2.96,0.45c0.18,0.89,0.45,1.61,1.07,1.97c0.72,0.63,1.79,0.9,3.14,0.9
	C549.4,219.09,549.49,219.09,549.66,219.09z"/>
</svg>
