<svg id="Layer_1" data-name="Layer 1" xmlns="http://www.w3.org/2000/svg" viewBox="0 0 288 148"><defs><style>.cls-1{fill:#035d99;}.cls-1,.cls-2,.cls-3,.cls-4,.cls-5{fill-rule:evenodd;}.cls-2{fill:#024a7c;}.cls-3{fill:#d2ad24;}.cls-4{fill:#e8c31d;}.cls-5{fill:#015e9b;}</style></defs><path class="cls-1" d="M123,70.85,123,118c.85.12,9-2.1,9.68-2.54l.06-11.55c2.33,1.27,6.59,1.66,9.66,1.21C152,103.69,156.55,95,156.28,85.8c-.21-7.16-2.08-12.34-6.95-15.19-5.27-3.09-14.26-1.9-16.81,2l-.07-4.33L123,70.85Zm9.7,5.25a11,11,0,0,1,8-.43c7.4,2.93,6.23,16.63,3,20.83a8.55,8.55,0,0,1-6.29,3.28,16.07,16.07,0,0,1-4.26-.24c-.51-.2-.49.29-.47-1.92,0-.81,0-1.63,0-2.44C132.69,88.88,132.85,82.37,132.68,76.1Z"/><path class="cls-2" d="M157,50.6c-2.16-26.89-25.58-20.89-45-20.89l0,0c0,6,1.2,13.67,3.4,18.51,7,15.5,21.79,12.08,29.57,14.34a18.58,18.58,0,0,1,11,8.15A13,13,0,0,0,157,72.47Z"/><path class="cls-1" d="M207,104.63c.36-5.47,0-12.11,0-17.7,0-3,0-6,0-9,0-2.22-.12-2,2.09-2.47a14.93,14.93,0,0,1,4-.32c6.66.38,5.81,6.08,5.81,12,0,5.6-.31,12.12,0,17.6h9.71c.38-4.51,0-10.65,0-15.35,0-4.37.42-10.69-1-14.38-2.46-6.37-10.47-7.17-16.16-5.21-2.56.88-3.26,1.85-4.79,3l0-4.4-9.48,2.59v33.8Z"/><path class="cls-1" d="M63.23,76.2c2.5-.55,6.54-2.58,11-1.22,3.84,1.17,3.49,4.91,3.36,9.1-2.16.22-5.23-.1-7.62,0a18.84,18.84,0,0,0-6.26,1.24c-8,3.4-7.86,16.75,1.25,19.35a15.19,15.19,0,0,0,7.49.11c2.84-.69,3.6-1.56,5.36-2.86l.06,2.77,9.07-.08c.31-4.89,0-10.82,0-15.83,0-4.14.49-11.46-1.16-14.7-3.91-7.69-18.08-5.29-24.69-3.31l2.11,5.41ZM77.61,99c-4.82,1.53-10,.78-10-4.6s4.76-6.69,10-5.76Z"/><path class="cls-1" d="M182.28,82.9l-12,0c0-4.78.88-9.08,5.92-9.23,5.35-.16,6.49,4.16,6.12,9.19Zm8.31,20.39-1.88-5.36c-1,.2-1.71.66-2.87.93-8,1.85-16.11-.88-15.61-11l21.75,0c-.11-4.62-.09-9.06-2.18-12.71-4.46-7.85-16-7.42-21.48-4.36-7.23,4-9,13.61-7.58,21.56a14.51,14.51,0,0,0,5.48,9.56C172.06,106.35,183.19,106,190.59,103.29Z"/><path class="cls-1" d="M30.77,70.47V75.2l4.3,0c.07,5.19-.61,21.32.86,24.92,2.77,6.77,14.12,5.41,19.38,3.62a30.88,30.88,0,0,0-1.65-5.35c-2,.69-4.92,1.34-7,.14S44.9,94.79,44.9,92c0-2.56-.16-15.4.05-16.78l6.89,0c.62-1.72,2.39-3.7,2.89-5.43H45l-.08-8.33-6.14,0C37.74,66.32,35.39,69.59,30.77,70.47Z"/><path class="cls-1" d="M94.37,97.78a26.67,26.67,0,0,0-2,5.47c1.54,1.2,6.7,1.8,9.08,1.94,5.9.36,13-.38,15.58-6.34a11.66,11.66,0,0,0-.18-9.22c-2.69-4.91-9.42-6-13.23-8.92-3.26-2.53-1.45-7.52,7.18-5.85A32.19,32.19,0,0,1,115,76.24c.58-1.84,1.46-3.72,2-5.45-1.63-1.4-20.83-5.56-23.29,5.76a10.6,10.6,0,0,0,1.75,8.69c3.48,4.18,11.77,6.25,13.14,8.8s-.57,5.27-4.88,5.46C99.14,99.7,97.85,98.8,94.37,97.78Z"/><path class="cls-3" d="M160.92,50.65c-.4,1-.34,21.08.05,21.75A18.34,18.34,0,0,1,173,62.58c6.61-1.91,17,.29,25.16-7.66,3.95-3.85,5.95-9.46,7-15a49.36,49.36,0,0,0,.87-10.26h-.12c-11.17,0-33.25-4-40.51,7.09C162.91,40.62,160.57,45.56,160.92,50.65Z"/><path class="cls-4" d="M165.42,36.8c-2.51,3.82-4.85,8.76-4.5,13.85-.38.92-.35,18.49,0,21.37l.08.38c.51-8.37,25.95-29.34,45.08-42.69h-.12C194.76,29.71,172.68,25.75,165.42,36.8Z"/><path class="cls-5" d="M157,50.6c-2.16-26.89-25.58-20.89-45-20.89l0,0V30c18.62,13.05,42.91,33.08,44.52,41.75l.15.24.32-1.65Z"/></svg>